<?xml version="1.0" encoding="utf-8"?>
<!-- Generator: Adobe Illustrator 27.1.0, SVG Export Plug-In . SVG Version: 6.00 Build 0)  -->
<svg version="1.1" id="Capa_1" xmlns="http://www.w3.org/2000/svg" xmlns:xlink="http://www.w3.org/1999/xlink" x="0px" y="0px"
	 viewBox="0 0 300 300" style="enable-background:new 0 0 300 300;" xml:space="preserve">
<style type="text/css">
	.st0{fill:#1D1D1B;}
</style>
<g>
	<path class="st0" d="M105.77,187.2c0.08-24.56,0.06-49.12,0.05-73.68c0-5.87-1.79-7-7.67-5.42c0,0-0.27,0.03-0.42,0.11
		c-0.2,0.11-0.47,0.6-0.75,0.77c-4.35,6.78-9.05,13.4-12.99,20.39c-7.04,12.48-14.92,24.49-22.24,36.81
		c-1.76,2.96-2.82,2.61-4.47-0.04c-3.63-5.81-7.58-11.43-11.17-17.26c-7.77-12.61-15.47-25.25-23.02-37.97
		c-1.86-3.12-4.79-2.22-7.46-1.96c-2.48,0.24-1.67,2.57-1.67,3.91c-0.1,25.03,0.05,50.07-0.2,75.1c-0.04,4.02,1.67,4.03,4.89,4.16
		c3.55,0.14,4.33-0.87,4.3-4.15c-0.19-18.89-0.1-37.78-0.08-56.68c0-1.27,0.15-2.54,0.29-4.71c10.18,16.51,19.78,32.12,29.42,47.71
		c1.16,1.87,2.43,3.7,3.89,5.37c1.46,1.68,5.23,1.45,6.33-0.29c6.44-10.29,12.84-20.6,19.23-30.92c4.28-6.91,8.5-13.84,12.75-20.77
		c2.86,0.58,1.5,2.76,1.51,4.14c0.1,18.34,0.05,36.68,0.1,55.02c0,1.67-0.58,3.45,0.55,5.03c2.6,0,5.19,0.01,7.79,0.01
		C106.84,190.69,105.76,188.75,105.77,187.2z"/>
	<path class="st0" d="M94.76,127.91c0.19-1.39,0.88-2.29,1.85-0.64c0.57,0.97,0.21,2.45,0.21,3.7c0.04,20.38,0.07,40.75,0.1,61.13
		c-2.15-1.16-1.03-3.1-1.04-4.62c-0.1-18.45-0.06-36.91-0.13-55.36C95.74,130.71,96.68,128.96,94.76,127.91z"/>
	<path class="st0" d="M164.94,108.02c-4.08,0.01-8.17,0.02-12.25,0.03C156.77,106.7,160.55,107.2,164.94,108.02z"/>
	<path class="st0" d="M148.73,192.36c4.05,0.01,8.11,0.01,12.16,0.02C154.81,193.11,152.99,192.74,148.73,192.36z"/>
	<path class="st0" d="M178.69,128.83c0.08-3.14,0.16-6.28,0.24-9.43C179.27,123.19,180.12,123.3,178.69,128.83z"/>
	<path class="st0" d="M199.5,185.08c-2.55-2.24-4.64-4.98-7.32-7.06c-2.85-2.22-2.24-4.09-0.77-6.78c2.34-4.28,3.4-8.55,5.13-12.81
		c1.62-4.02-2.38-3.31-4.55-3.75c-1.91-0.38-3.01-0.3-3.27,2.33c-0.31,3.11-1.89,6.11-3,9.14c-1.19,3.24-2.37,3.45-5.03,0.81
		c-6.12-6.07-12.14-12.23-18.3-18.26c-1.87-1.83-2.54-2.61,0.55-4.27c6.79-3.66,14.19-7.7,15.76-15.58
		c0.64-3.24,0.22-5.41,0.24-9.43c-1.35-4.17-4.2-7.14-8.27-9.07c-1.85-0.88-3.81-1.55-5.72-2.31c-4.09-0.5-8.11-1.18-12.19-0.59
		c-6.41,0.42-11.11,4.29-13.89,9.46c-3.98,7.4-2.8,14.63,2.25,21.3c1.79,2.36,5.85,4.64,5.15,6.83c-0.74,2.31-4.88,3.59-7.42,5.47
		c-6.31,4.65-11.87,9.52-13.13,17.85c-2.17,14.32,11.17,23.15,23.01,24.04c4.05,0.56,8.11,0.52,12.16,0.02
		c8.06-1.3,15.76-3.34,21.39-9.49c1.56-1.71,2.6-0.53,3.63,0.42c2.49,2.31,5.1,4.55,7.29,7.09c2.44,2.84,4.07,1.76,6.44-0.16
		C202.22,188.16,201.56,186.89,199.5,185.08z M144.82,125.85c-0.2-5.81,3.22-9.5,9.22-11.3c4.98-1.49,9.32-0.01,13.49,1.82
		c3.43,1.51,3.63,4.92,3.27,7.44c0.02,6.7-8.84,15.93-15.15,16.43c-0.75,0.06-1.75-0.18-2.28-0.65
		C149.1,135.82,145.03,131.87,144.82,125.85z M175.68,179.14c-6.27,4.8-13.34,6.48-22.27,6.5c-3.75,0.33-7.97-0.91-12.19-3.54
		c-10.06-6.24-7.81-19.24,0.36-24.88c11.08-7.65,10.96-7.56,20.21,2.24c4.53,4.8,9.58,9.16,14.41,13.7
		C178.54,175.37,178.63,176.89,175.68,179.14z"/>
	<g>
		<path class="st0" d="M278.34,117.75c-6.95-7.32-16.38-8.08-25.95-9.38c-1.81,0.11-3.74,0.03-5.61-0.02c1.97,0.14-1.79,0.02,0,0
			c-11.31,0.1-16.92,0.64-28.23,0.75c0,27.46-0.01,54.93-0.01,82.39c2.52,0.01,5.04,0.03,7.56,0.04c0.13-0.46,0.22-0.93,0.31-1.39
			c0.01-6.76,0-13.51,0.12-20.26c0.02-1.24-0.14-2.37-0.1-3.81c-0.22-0.39,0.55-0.72,0.93-0.74c9.15-0.06,18.3,0.11,27.44-0.25
			c11.66-0.47,25.87-5.69,29.93-19.03C287.93,135.56,286.14,125.96,278.34,117.75z M276.3,143.68
			c-3.44,8.56-10.31,12.67-19.66,13.59c-9.65,1.64-19.36,0.58-29.04,0.62c-1.27-0.66-1.08-1.82-1.08-2.89
			c-0.02-11.89-0.04-23.77-0.02-35.66c0-0.99-0.44-2.28,1.17-2.71c10.53-0.45,21.09-0.49,31.51,0.87c6.91,0.9,12.35,3.96,15.6,10.85
			c0.56,1.19,1.46,1.87,1.75,3.21C278.11,135.63,278.2,139.67,276.3,143.68z"/>
	</g>
</g>
</svg>
