<?xml version="1.0" encoding="UTF-8"?>
<svg id="Capa_2" data-name="Capa 2" xmlns="http://www.w3.org/2000/svg" viewBox="0 0 205.65 207.23">
  <defs>
    <style>
      .cls-1 {
        fill: #527fa2;
      }

      .cls-2 {
        fill: #fff;
      }

      .cls-3 {
        fill: #dae5f6;
      }

      .cls-4 {
        fill: #2b5f89;
      }

      .cls-5 {
        fill: #b6caea;
      }

      .cls-6 {
        fill: #010101;
        opacity: .3;
      }

      .cls-7 {
        fill: #679fc9;
      }

      .cls-8 {
        fill: #0a3652;
      }

      .cls-9 {
        fill: #3f4697;
      }

      .cls-10 {
        fill: #bdd2ee;
      }

      .cls-11 {
        fill: #e9f1fb;
      }
    </style>
  </defs>
  <g id="Capa_1-2" data-name="Capa 1">
    <path class="cls-9" d="m168.74,184.03l-85.54,22.63c-6.02,1.59-12.44-.19-16.77-4.67L4.85,138.43c-4.25-4.39-5.86-10.71-4.22-16.6L24.72,35.23c1.64-5.89,6.28-10.47,12.19-12.03L122.46.57c6.02-1.59,12.44.19,16.77,4.67l61.57,63.55c4.25,4.39,5.86,10.71,4.22,16.6l-24.09,86.6c-1.64,5.89-6.28,10.47-12.19,12.03Z"/>
    <g>
      <polygon class="cls-6" points="128.05 165.79 49.12 119.18 79.6 101.18 158.54 147.79 128.05 165.79"/>
      <g>
        <path class="cls-5" d="m129.18,140.35c-1.46-.86-3.83-.86-5.29,0l-19.72,12.5h-1.11v.68s0,.05,0,.08v.06h0c.04.53.39,1.06,1.08,1.46,1.46.86,3.83.86,5.29,0l19.75-11.66c1.46-.86,1.46-2.26,0-3.12Z"/>
        <path class="cls-11" d="m129.18,139.53c-1.46-.86-3.83-.86-5.29,0l-19.75,11.66c-1.46.86-1.46,2.26,0,3.12,1.46.86,3.83.86,5.29,0l19.75-11.66c1.46-.86,1.46-2.26,0-3.12Z"/>
      </g>
      <g>
        <path class="cls-5" d="m88.56,116.37c-1.46-.86-3.83-.86-5.29,0l-19.72,12.5h-1.11v.68s0,.05,0,.08v.06h0c.04.53.39,1.06,1.08,1.46,1.46.86,3.83.86,5.29,0l19.75-11.66c1.46-.86,1.46-2.26,0-3.12Z"/>
        <path class="cls-11" d="m88.56,115.55c-1.46-.86-3.83-.86-5.29,0l-19.75,11.66c-1.46.86-1.46,2.26,0,3.12,1.46.86,3.83.86,5.29,0l19.75-11.66c1.46-.86,1.46-2.26,0-3.12Z"/>
      </g>
      <g>
        <polygon class="cls-5" points="158.54 144.55 128.05 162.55 124.38 116.07 128.05 100.01 158.54 82.02 158.54 144.55"/>
        <g>
          <g>
            <g>
              <path class="cls-8" d="m131.16,145.02c0,.15.1.21.23.14l7.12-4.2c.13-.07.23-.26.23-.41,0-.15-.1-.21-.23-.13l-7.12,4.2c-.13.08-.23.26-.23.41Z"/>
              <path class="cls-8" d="m131.16,143.14c0,.15.1.21.23.14l7.12-4.2c.13-.07.23-.26.23-.41,0-.15-.1-.21-.23-.14l-7.12,4.2c-.13.07-.23.26-.23.41Z"/>
              <path class="cls-8" d="m131.16,141.26c0,.15.1.21.23.13l7.12-4.2c.13-.07.23-.26.23-.41s-.1-.21-.23-.14l-7.12,4.2c-.13.08-.23.26-.23.41Z"/>
              <path class="cls-8" d="m131.16,139.38c0,.15.1.21.23.14l7.12-4.2c.13-.08.23-.26.23-.41,0-.15-.1-.21-.23-.13l-7.12,4.2c-.13.07-.23.26-.23.41Z"/>
              <path class="cls-8" d="m131.16,137.5c0,.15.1.21.23.14l7.12-4.2c.13-.08.23-.26.23-.41,0-.15-.1-.21-.23-.13l-7.12,4.2c-.13.08-.23.26-.23.41Z"/>
            </g>
            <g>
              <path class="cls-8" d="m139.65,140.01c0,.15.1.21.23.14l7.12-4.2c.13-.08.23-.26.23-.41,0-.15-.1-.21-.23-.13l-7.12,4.2c-.13.08-.23.26-.23.41Z"/>
              <path class="cls-8" d="m139.65,138.13c0,.15.1.21.23.14l7.12-4.2c.13-.08.23-.26.23-.41,0-.15-.1-.21-.23-.14l-7.12,4.2c-.13.08-.23.26-.23.41Z"/>
              <path class="cls-8" d="m139.65,136.25c0,.15.1.21.23.13l7.12-4.2c.13-.08.23-.26.23-.41s-.1-.21-.23-.14l-7.12,4.2c-.13.08-.23.26-.23.41Z"/>
              <path class="cls-8" d="m139.65,134.37c0,.15.1.21.23.14l7.12-4.2c.13-.08.23-.26.23-.41,0-.15-.1-.21-.23-.14l-7.12,4.2c-.13.07-.23.26-.23.41Z"/>
              <path class="cls-8" d="m139.65,132.49c0,.15.1.21.23.14l7.12-4.2c.13-.08.23-.26.23-.41,0-.15-.1-.21-.23-.13l-7.12,4.2c-.13.07-.23.26-.23.41Z"/>
            </g>
            <g>
              <path class="cls-8" d="m148.18,134.97c0,.15.1.21.23.14l7.12-4.2c.13-.08.23-.26.23-.41,0-.15-.1-.21-.23-.14l-7.12,4.2c-.13.07-.23.26-.23.41Z"/>
              <path class="cls-8" d="m148.18,133.09c0,.15.1.21.23.14l7.12-4.2c.13-.08.23-.26.23-.41,0-.15-.1-.21-.23-.14l-7.12,4.2c-.13.07-.23.26-.23.41Z"/>
              <path class="cls-8" d="m148.18,131.21c0,.15.1.21.23.14l7.12-4.2c.13-.08.23-.26.23-.41s-.1-.21-.23-.14l-7.12,4.2c-.13.08-.23.26-.23.41Z"/>
              <path class="cls-8" d="m148.18,129.33c0,.15.1.21.23.14l7.12-4.2c.13-.08.23-.26.23-.41,0-.15-.1-.21-.23-.14l-7.12,4.2c-.13.07-.23.26-.23.41Z"/>
              <path class="cls-8" d="m148.18,127.45c0,.15.1.21.23.14l7.12-4.2c.13-.08.23-.26.23-.41,0-.15-.1-.21-.23-.14l-7.12,4.2c-.13.08-.23.26-.23.41Z"/>
            </g>
          </g>
          <g>
            <g>
              <path class="cls-8" d="m131.16,155.43c0,.15.1.21.23.14l7.12-4.2c.13-.08.23-.26.23-.41,0-.15-.1-.21-.23-.13l-7.12,4.2c-.13.08-.23.26-.23.41Z"/>
              <path class="cls-8" d="m131.16,153.55c0,.15.1.21.23.14l7.12-4.2c.13-.07.23-.26.23-.41,0-.15-.1-.21-.23-.14l-7.12,4.2c-.13.07-.23.26-.23.41Z"/>
              <path class="cls-8" d="m131.16,151.67c0,.15.1.21.23.14l7.12-4.2c.13-.08.23-.26.23-.41s-.1-.21-.23-.14l-7.12,4.2c-.13.08-.23.26-.23.41Z"/>
              <path class="cls-8" d="m131.16,149.79c0,.15.1.21.23.14l7.12-4.2c.13-.08.23-.26.23-.41,0-.15-.1-.21-.23-.14l-7.12,4.2c-.13.07-.23.26-.23.41Z"/>
              <path class="cls-8" d="m131.16,147.91c0,.15.1.21.23.14l7.12-4.2c.13-.08.23-.26.23-.41,0-.15-.1-.21-.23-.14l-7.12,4.2c-.13.08-.23.26-.23.41Z"/>
            </g>
            <g>
              <path class="cls-8" d="m139.65,150.42c0,.15.1.21.23.14l7.12-4.2c.13-.08.23-.26.23-.41,0-.15-.1-.21-.23-.14l-7.12,4.2c-.13.08-.23.26-.23.41Z"/>
              <path class="cls-8" d="m139.65,148.54c0,.15.1.21.23.14l7.12-4.2c.13-.08.23-.26.23-.41,0-.15-.1-.21-.23-.14l-7.12,4.2c-.13.08-.23.26-.23.41Z"/>
              <path class="cls-8" d="m139.65,146.66c0,.15.1.21.23.13l7.12-4.2c.13-.08.23-.26.23-.41s-.1-.21-.23-.14l-7.12,4.2c-.13.08-.23.26-.23.41Z"/>
              <path class="cls-8" d="m139.65,144.78c0,.15.1.21.23.14l7.12-4.2c.13-.08.23-.26.23-.41,0-.15-.1-.21-.23-.14l-7.12,4.2c-.13.08-.23.26-.23.41Z"/>
              <path class="cls-8" d="m139.65,142.9c0,.15.1.21.23.14l7.12-4.2c.13-.08.23-.26.23-.41,0-.15-.1-.21-.23-.14l-7.12,4.2c-.13.07-.23.26-.23.41Z"/>
            </g>
            <g>
              <path class="cls-8" d="m148.18,145.38c0,.15.1.21.23.14l7.12-4.2c.13-.08.23-.26.23-.41,0-.15-.1-.21-.23-.13l-7.12,4.2c-.13.08-.23.26-.23.41Z"/>
              <path class="cls-8" d="m148.18,143.5c0,.15.1.21.23.14l7.12-4.2c.13-.07.23-.26.23-.41,0-.15-.1-.21-.23-.14l-7.12,4.2c-.13.07-.23.26-.23.41Z"/>
              <path class="cls-8" d="m148.18,141.62c0,.15.1.21.23.13l7.12-4.2c.13-.08.23-.26.23-.41s-.1-.21-.23-.14l-7.12,4.2c-.13.08-.23.26-.23.41Z"/>
              <path class="cls-8" d="m148.18,139.74c0,.15.1.21.23.14l7.12-4.2c.13-.08.23-.26.23-.41,0-.15-.1-.21-.23-.14l-7.12,4.2c-.13.07-.23.26-.23.41Z"/>
              <path class="cls-8" d="m148.18,137.86c0,.15.1.21.23.14l7.12-4.2c.13-.08.23-.26.23-.41,0-.15-.1-.21-.23-.14l-7.12,4.2c-.13.08-.23.26-.23.41Z"/>
            </g>
          </g>
        </g>
        <polygon class="cls-3" points="128.05 100.01 72.07 80.02 49.12 53.41 79.6 35.41 158.54 82.02 128.05 100.01"/>
        <polygon class="cls-2" points="128.05 162.55 49.12 115.94 49.12 53.41 128.05 100.01 128.05 162.55"/>
      </g>
      <g>
        <polygon class="cls-3" points="141.68 128.13 138.55 126.29 138.55 105.69 141.68 107.54 143.51 113.29 141.68 128.13"/>
        <polygon class="cls-2" points="141.68 107.54 138.55 105.69 148.81 99.6 151.94 101.45 141.68 107.54"/>
        <polygon class="cls-10" points="151.94 122.05 141.68 128.13 141.68 107.54 151.94 101.45 151.94 122.05"/>
      </g>
      <g>
        <g>
          <polygon class="cls-5" points="99.75 140.58 99.75 142.69 52 114.5 52 58.12 53.79 59.17 53.79 113.44 99.75 140.58"/>
          <polygon class="cls-3" points="99.75 86.31 99.75 140.58 53.79 113.44 53.79 59.17 99.75 86.31"/>
        </g>
        <g>
          <path class="cls-3" d="m92.05,124.87c-3.77,2.69-9.21,2.56-15.27-1.01-11.38-6.72-20.61-23.05-20.61-36.48,0-7.13,2.61-12.03,6.76-14.02-3.36,2.33-5.41,6.9-5.41,13.22,0,13.43,9.23,29.76,20.59,36.48,5.37,3.18,10.27,3.63,13.94,1.81Z"/>
          <path class="cls-8" d="m97.37,111.7c0,6.25-2,10.77-5.28,13.14-.01.03-.03.03-.04.03-3.66,1.82-8.56,1.37-13.94-1.81-11.37-6.72-20.59-23.05-20.59-36.48,0-6.32,2.05-10.89,5.41-13.22h.01c3.65-1.77,8.51-1.29,13.83,1.85,11.38,6.72,20.59,23.06,20.59,36.49Z"/>
          <g>
            <path class="cls-4" d="m70.21,74.62h0s-.71.41-.71.41v.15c-.1.11-.21.22-.29.35-3.58,5.21,3.21,15.71,3.21,15.71,0,0,7.97,5.57,8.36,4.94,1.68-2.64,4.75-1.77,6.53-2.08l.09.13.64-.39c.3-.19.52-.46.6-.91,1.49-7.9-13.19-21.18-18.43-18.32Z"/>
            <path class="cls-7" d="m71.72,91.66s-6.79-10.5-3.21-15.72c3.97-5.79,21.03,8.92,19.44,17.41-.51,2.69-5.53-.43-7.86,3.24-.4.63-8.36-4.94-8.36-4.94Z"/>
          </g>
          <g>
            <path class="cls-4" d="m76.63,105.8s-3.56-10.56-4.39-11c-4.85-2.55-7.39-9.18-9.81-9.55-.7-.1-1.28,0-1.77.26l-.75.44.02.18c-3.48,4.17,1.61,21.5,8.42,25.28,1.81,1,3.23,1.14,4.35.79l.05.08.85-.51c2.52-1.62,3.02-5.96,3.02-5.96Z"/>
            <path class="cls-7" d="m75.93,106.21s-1.12,9.57-8.27,5.6c-7.95-4.41-13.57-27.31-5.93-26.15,2.42.37,4.96,6.99,9.81,9.55.83.44,4.4,11,4.4,11Z"/>
          </g>
          <g>
            <path class="cls-4" d="m83.39,99.87s7.77-.12,12,9.2c4.7,10.35-5.79,20.72-12.45,11.25-2.11-3,.03-7.11-2.93-13.4-.42-.9,1.65-5.39,2.53-6.78.17-.27.85-.26.85-.26Z"/>
            <path class="cls-7" d="m82.69,100.28s7.77-.12,12,9.2c4.7,10.35-5.79,20.72-12.45,11.25-2.11-3,.03-7.11-2.93-13.41-.51-1.08,3.38-7.04,3.38-7.04Z"/>
          </g>
          <g>
            <path class="cls-5" d="m83.89,103.68c0,4.66-3.2,6.54-7.14,4.22-3.94-2.33-7.14-7.99-7.14-12.65s3.2-6.54,7.14-4.22c3.94,2.33,7.14,7.99,7.14,12.65Z"/>
            <polygon class="cls-5" points="71.78 90.48 70.6 91.17 71.12 92.08 72.71 91.49 71.78 90.48"/>
            <polygon class="cls-5" points="80.65 109.07 81.91 108.33 80.99 106.06 79.81 106.77 80.65 109.07"/>
            <path class="cls-2" d="m82.87,104.28c0,4.66-3.2,6.54-7.14,4.22-3.94-2.33-7.14-7.99-7.14-12.65s3.2-6.54,7.14-4.22c3.94,2.33,7.14,7.99,7.14,12.65Z"/>
          </g>
        </g>
        <g>
          <g>
            <path class="cls-5" d="m54.51,59.83v55.25s.03.1.09.14c.13.07.33.07.46,0,.06-.04.09-.09.09-.14v-54.87l-.65-.38Z"/>
            <path class="cls-5" d="m56.95,61.27v55.26s.03.1.09.13c.13.07.33.07.46,0,.06-.04.1-.09.1-.13v-54.87l-.65-.38Z"/>
            <path class="cls-5" d="m59.4,62.71v55.25s.03.1.09.13c.12.07.33.07.46,0,.06-.04.09-.08.09-.13v-54.87l-.65-.38Z"/>
            <path class="cls-5" d="m61.84,64.16v55.25s.03.1.09.13c.13.08.33.08.46,0,.06-.04.09-.08.09-.13v-54.87l-.65-.38Z"/>
            <path class="cls-5" d="m64.29,65.6v55.26s.03.1.09.13c.13.07.33.07.46,0,.06-.04.09-.08.09-.13v-54.87l-.64-.38Z"/>
            <path class="cls-5" d="m66.73,67.04v55.26s.03.1.09.13c.13.07.33.07.46,0,.06-.04.09-.09.09-.13v-54.87l-.65-.38Z"/>
            <path class="cls-5" d="m69.18,68.48v55.26s.03.1.09.14c.13.07.33.07.46,0,.06-.04.09-.09.09-.14v-54.87l-.65-.38Z"/>
            <path class="cls-5" d="m71.62,69.93v55.25s.03.1.09.14c.12.07.33.07.46,0,.06-.04.09-.09.09-.14v-54.87l-.65-.38Z"/>
            <path class="cls-5" d="m74.07,71.37v55.26s.03.1.09.13c.13.08.33.08.46,0,.06-.04.09-.09.09-.13v-54.87l-.65-.38Z"/>
            <path class="cls-5" d="m76.51,72.81v55.25s.03.1.09.14c.13.07.33.07.46,0,.06-.04.09-.09.09-.14v-54.87l-.65-.38Z"/>
            <path class="cls-5" d="m78.96,74.26v55.26s.03.1.09.13c.13.07.33.07.46,0,.06-.04.09-.09.09-.13v-54.88l-.64-.38Z"/>
            <path class="cls-5" d="m81.4,75.7v55.26s.03.1.09.13c.12.07.33.07.46,0,.06-.04.09-.09.09-.13v-54.88l-.65-.38Z"/>
            <path class="cls-5" d="m83.84,77.14v55.26s.03.1.09.13c.13.07.33.07.46,0,.06-.04.09-.09.09-.13v-54.88l-.65-.38Z"/>
            <path class="cls-5" d="m86.29,78.59v55.26s.03.1.09.13c.13.08.33.08.46,0,.06-.04.09-.08.09-.13v-54.88l-.65-.38Z"/>
            <path class="cls-5" d="m88.73,80.03v55.26s.03.1.09.13c.13.08.33.08.46,0,.06-.04.09-.09.09-.13v-54.87l-.64-.38Z"/>
            <path class="cls-5" d="m91.18,81.47v55.26s.03.1.09.14c.12.07.33.07.46,0,.06-.04.09-.09.09-.14v-54.87l-.65-.38Z"/>
            <path class="cls-5" d="m93.62,82.92v55.26s.03.1.09.14c.13.07.33.07.46,0,.06-.04.09-.09.09-.14v-54.88l-.65-.38Z"/>
            <path class="cls-5" d="m96.07,84.36v55.26s.03.1.09.13c.13.07.33.07.46,0,.06-.04.09-.09.09-.13v-54.88l-.65-.38Z"/>
            <path class="cls-5" d="m98.51,85.8v55.26s.03.1.09.14c.13.07.33.07.46,0,.06-.04.09-.09.09-.14v-54.88l-.65-.38Z"/>
          </g>
          <g>
            <path class="cls-5" d="m99.71,139.61l-46.61-27.52s-.1-.02-.16.02c-.13.07-.23.25-.23.4,0,.07.03.13.07.15l46.93,27.71v-.76Z"/>
            <path class="cls-5" d="m99.71,136.73l-46.61-27.52s-.1-.02-.16.02c-.13.07-.23.25-.23.4,0,.08.03.13.07.15l46.93,27.71v-.76Z"/>
            <path class="cls-5" d="m99.71,133.84l-46.61-27.52s-.1-.02-.16.02c-.13.07-.23.26-.23.4,0,.07.03.13.07.15l46.93,27.71v-.76Z"/>
            <path class="cls-5" d="m99.71,130.95l-46.61-27.52s-.1-.02-.16.02c-.13.07-.23.25-.23.4,0,.08.03.13.07.15l46.93,27.71v-.76Z"/>
            <path class="cls-5" d="m99.71,128.07l-46.61-27.52s-.1-.02-.16.01c-.13.08-.23.26-.23.4,0,.08.03.13.07.15l46.93,27.71v-.76Z"/>
            <path class="cls-5" d="m99.71,125.18l-46.61-27.52s-.1-.02-.16.02c-.13.07-.23.26-.23.4,0,.08.03.13.07.15l46.93,27.71v-.76Z"/>
            <path class="cls-5" d="m99.71,122.29l-46.61-27.52s-.1-.02-.16.02c-.13.07-.23.26-.23.4,0,.08.03.13.07.15l46.93,27.71v-.76Z"/>
            <path class="cls-5" d="m99.71,119.41l-46.61-27.52s-.1-.02-.16.02c-.13.07-.23.26-.23.4,0,.07.03.13.07.15l46.93,27.71v-.76Z"/>
            <path class="cls-5" d="m99.71,116.52l-46.61-27.52s-.1-.02-.16.02c-.13.07-.23.26-.23.4,0,.08.03.13.07.15l46.93,27.71v-.76Z"/>
            <path class="cls-5" d="m99.71,113.63l-46.61-27.52s-.1-.02-.16.02c-.13.07-.23.26-.23.4,0,.08.03.13.07.15l46.93,27.71v-.76Z"/>
            <path class="cls-5" d="m99.71,110.75l-46.61-27.52s-.1-.02-.16.02c-.13.07-.23.26-.23.4,0,.08.03.13.07.15l46.93,27.71v-.76Z"/>
            <path class="cls-5" d="m99.71,107.86l-46.61-27.52s-.1-.02-.16.02c-.13.07-.23.26-.23.4,0,.08.03.13.07.15l46.93,27.71v-.76Z"/>
            <path class="cls-5" d="m99.71,104.97l-46.61-27.52s-.1-.02-.16.02c-.13.07-.23.26-.23.4,0,.08.03.13.07.15l46.93,27.71v-.76Z"/>
            <path class="cls-5" d="m99.71,102.09l-46.61-27.52s-.1-.02-.16.02c-.13.07-.23.26-.23.4,0,.07.03.13.07.15l46.93,27.71v-.76Z"/>
            <path class="cls-5" d="m99.71,99.2l-46.61-27.52s-.1-.02-.16.02c-.13.07-.23.26-.23.4,0,.08.03.13.07.15l46.93,27.71v-.76Z"/>
            <path class="cls-5" d="m99.71,96.31l-46.61-27.52s-.1-.02-.16.02c-.13.07-.23.25-.23.4,0,.08.03.13.07.15l46.93,27.71v-.76Z"/>
            <path class="cls-5" d="m99.71,93.43l-46.61-27.52s-.1-.02-.16.02c-.13.07-.23.26-.23.4,0,.08.03.13.07.15l46.93,27.71v-.76Z"/>
            <path class="cls-5" d="m99.71,90.54l-46.61-27.52s-.1-.02-.16.02c-.13.07-.23.26-.23.4,0,.08.03.13.07.15l46.93,27.71v-.76Z"/>
            <path class="cls-5" d="m99.71,87.65l-46.61-27.52s-.1-.02-.16.02c-.13.07-.23.26-.23.4,0,.08.03.13.07.15l46.93,27.71v-.76Z"/>
          </g>
        </g>
      </g>
      <g>
        <polygon class="cls-5" points="123.74 155.83 124.38 155.47 124.38 103.29 123.74 103.65 120 115.39 123.74 155.83"/>
        <polygon class="cls-3" points="123.74 103.65 124.38 103.29 103.43 90.85 102.79 91.21 123.74 103.65"/>
        <polygon class="cls-11" points="102.79 143.42 123.74 155.83 123.74 103.65 102.79 91.21 102.79 143.42"/>
        <polygon class="cls-5" points="107.93 142.24 107.93 143.7 104.9 141.92 104.9 133.28 106.18 134.03 106.18 141.2 107.93 142.24"/>
        <polygon class="cls-2" points="107.93 135.07 107.93 142.24 106.18 141.2 106.18 134.03 107.93 135.07"/>
        <g>
          <path class="cls-1" d="m115.86,104.07l-10.38-6.13c-.52-.31-.94-.06-.94.55,0,.62.43,1.36.94,1.66l10.38,6.12c.52.31.94.07.94-.55,0-.01,0-.02,0-.03-.02-.62-.44-1.33-.95-1.63Z"/>
          <path class="cls-8" d="m121.04,107.13l-2.53-1.5c-.52-.31-.94-.06-.94.55,0,.62.43,1.35.94,1.66l2.53,1.5c.52.31.94.06.94-.55,0-.01,0-.02,0-.03-.02-.62-.44-1.33-.95-1.63Z"/>
        </g>
      </g>
    </g>
  </g>
</svg>