<?xml version="1.0" encoding="UTF-8"?>
<svg id="Capa_2" data-name="Capa 2" xmlns="http://www.w3.org/2000/svg" viewBox="0 0 205.65 207.23">
  <defs>
    <style>
      .cls-1 {
        fill: #527fa2;
      }

      .cls-2 {
        fill: #fff;
      }

      .cls-3 {
        fill: #dae5f6;
      }

      .cls-4 {
        fill: #93d3f5;
      }

      .cls-5 {
        fill: #2b5f89;
      }

      .cls-6 {
        fill: #b6caea;
      }

      .cls-7 {
        fill: #82a1cc;
      }

      .cls-8 {
        fill: #c2c1c1;
      }

      .cls-9 {
        fill: #e9f1fb;
      }
    </style>
  </defs>
  <g id="Capa_1-2" data-name="Capa 1">
    <path class="cls-8" d="m168.74,184.03l-85.54,22.63c-6.02,1.59-12.44-.19-16.77-4.67L4.85,138.43c-4.25-4.39-5.86-10.71-4.22-16.6L24.72,35.23c1.64-5.89,6.28-10.47,12.19-12.03L122.46.57c6.02-1.59,12.44.19,16.77,4.67l61.57,63.55c4.25,4.39,5.86,10.71,4.22,16.6l-24.09,86.6c-1.64,5.89-6.28,10.47-12.19,12.03Z"/>
    <g>
      <g>
        <polygon class="cls-7" points="55.34 87.37 55.34 88.37 39.83 78.7 39.83 67.07 40.68 67.6 40.68 78.21 55.34 87.37"/>
        <polygon class="cls-4" points="55.34 76.74 55.34 87.37 40.68 78.21 40.68 67.6 55.34 76.74"/>
        <g>
          <path class="cls-2" d="m52.79,76.15c-.99-.62-1.8-.12-1.8,1.12s.8,2.75,1.8,3.37c.99.62,1.8.12,1.8-1.12s-.8-2.75-1.8-3.37Zm0,3.35c-.49-.31-.89-1.05-.89-1.66s.4-.86.89-.55c.49.31.89,1.05.89,1.66s-.4.86-.89.56Z"/>
          <path class="cls-2" d="m48.8,74.78l-6.58-4.12c-.49-.3-.88-.06-.88.55s.39,1.35.88,1.65l6.58,4.12c.49.3.88.06.88-.55s-.4-1.35-.88-1.65Z"/>
          <path class="cls-2" d="m48.8,79.07l-6.58-4.12c-.49-.3-.88-.06-.88.55s.39,1.35.88,1.65l6.58,4.12c.49.3.88.06.88-.55s-.4-1.35-.88-1.65Z"/>
        </g>
      </g>
      <g>
        <path class="cls-1" d="m164.12,104.17L58.35,38.07c-1.44-.9-2.73-.94-3.65-.29l-7.91,4.95,5.89,10.54.66-.46v28.27c0,3.45,2.26,7.69,5.02,9.41l92.8,61.34,6.15,5.2,2.57,8.39,7.87-4.92c.87-.58,1.42-1.78,1.42-3.46v-43.46c0-3.45-2.26-7.68-5.02-9.41Z"/>
        <path class="cls-5" d="m156.54,134.15l.76,22.88,2.57,8.39,7.87-4.92c.87-.58,1.42-1.78,1.42-3.46v-43.46l-7.83,4.89-4.78,15.69Z"/>
        <path class="cls-2" d="m156.3,109.06L50.52,42.97c-1.57-.98-2.97-.95-3.89-.11h0s-12.67,12.78-12.67,12.78l11.55,11.58v18.75c0,3.45,2.26,7.68,5.02,9.41l61.17,38.22,27.84,28.39,19.05,3.79c1.61-.04,2.73-1.45,2.73-3.87v-43.46c0-3.45-2.26-7.69-5.02-9.41Z"/>
        <path class="cls-9" d="m142.76,127.37l-5.74,16.66,2.52,17.97,19.05,3.79c1.61-.04,2.73-1.45,2.73-3.87v-43.46l-18.56,8.9Z"/>
        <path class="cls-6" d="m32.89,89.73c0,3.27,2.14,7.29,4.76,8.92l100.35,62.7c.38.24.75.4,1.11.51l1.76.16.64-.46c.76-.58,1.25-1.66,1.25-3.2v-31.01c0-3.27-2.14-7.29-4.76-8.92L37.65,55.74c-1.3-.81-2.48-.89-3.34-.37h0s-.02,0-.02,0c0,0-.68.46-.68.46l-.63,1.82"/>
        <path class="cls-3" d="m32.37,59.06c0-3.27,2.14-4.61,4.76-2.98l100.35,62.7c2.62,1.64,4.76,5.65,4.76,8.93v31.02c0,3.27-2.14,4.61-4.76,2.98l-100.35-62.7c-2.62-1.64-4.76-5.65-4.76-8.93"/>
        <path class="cls-2" d="m79.36,117.11c0,.57.37,1.26.83,1.54l14.22,8.88c.46.29.82.06.83-.51,0-.01,0-.02,0-.03-.02-.57-.38-1.24-.83-1.52l-14.17-8.85-.05-.03c-.45-.29-.82-.06-.82.51Z"/>
        <path class="cls-2" d="m137.35,157.99h0c-.57,0-1.18-.2-1.8-.59l-96.91-60.55c-2.09-1.3-3.79-4.5-3.79-7.11v-26.71c0-1.95.94-3.21,2.41-3.21.57,0,1.18.2,1.8.58l96.91,60.55c2.09,1.31,3.79,4.5,3.79,7.11v26.71c0,.95-.22,1.75-.65,2.32-.43.58-1.05.89-1.76.89ZM37.26,60.71c-.99,0-1.58.87-1.58,2.32v26.71c0,2.29,1.55,5.19,3.38,6.33l96.91,60.55c1.03.65,1.98.61,2.5-.09.3-.41.46-1.01.46-1.76v-26.71c0-2.29-1.55-5.19-3.38-6.33L38.64,61.18c-.49-.31-.97-.47-1.39-.47Z"/>
      </g>
    </g>
  </g>
</svg>