<?xml version="1.0" encoding="UTF-8"?>
<svg id="Capa_2" data-name="Capa 2" xmlns="http://www.w3.org/2000/svg" viewBox="0 0 205.65 207.23">
  <defs>
    <style>
      .cls-1 {
        fill: #eb5c45;
      }

      .cls-2 {
        fill: #fff;
      }

      .cls-3 {
        fill: #dae5f6;
      }

      .cls-4 {
        fill: #b6caea;
      }

      .cls-5 {
        fill: #010101;
        opacity: .3;
      }

      .cls-6 {
        fill: #808181;
      }

      .cls-7 {
        fill: #aeadad;
      }

      .cls-8 {
        fill: #82a1cc;
      }

      .cls-9 {
        fill: #0a3652;
      }

      .cls-10 {
        fill: #3f4697;
      }
    </style>
  </defs>
  <g id="Capa_1-2" data-name="Capa 1">
    <path class="cls-10" d="m168.74,184.03l-85.54,22.63c-6.02,1.59-12.44-.19-16.77-4.67L4.85,138.43c-4.25-4.39-5.86-10.71-4.22-16.6L24.72,35.23c1.64-5.89,6.28-10.47,12.19-12.03L122.46.57c6.02-1.59,12.44.19,16.77,4.67l61.57,63.55c4.25,4.39,5.86,10.71,4.22,16.6l-24.09,86.6c-1.64,5.89-6.28,10.47-12.19,12.03Z"/>
    <g>
      <polygon class="cls-5" points="141.77 162.82 57.7 115.8 46.04 122.32 130.11 169.34 141.77 162.82"/>
      <g>
        <polygon class="cls-4" points="140.47 158.28 129.95 164.17 126.11 118.13 129.95 102.24 140.47 96.35 140.47 158.28"/>
        <polygon class="cls-3" points="129.95 102.24 71.44 82.44 47.44 56.08 57.96 50.2 140.47 96.35 129.95 102.24"/>
        <g>
          <g>
            <path class="cls-8" d="m137.02,96.67l.06-.04c.58-.33.58-.84,0-1.17-.59-.32-1.52-.32-2.1,0l-6.7,3.75c-.58.33-.58.84,0,1.17,0,.01.02,0,.03.02l6.65-3.72c.57-.32,1.48-.33,2.06-.02Z"/>
            <path class="cls-9" d="m130.39,100.38l6.63-3.71c-.58-.31-1.49-.3-2.06.02l-6.65,3.72c.59.3,1.5.29,2.07-.02Z"/>
          </g>
          <g>
            <path class="cls-8" d="m132.16,93.95l.06-.04c.58-.33.59-.85,0-1.17-.58-.33-1.52-.32-2.1,0l-6.7,3.75c-.58.33-.58.84,0,1.17,0,.01.02,0,.03.02l6.65-3.72c.57-.32,1.48-.33,2.06-.02Z"/>
            <path class="cls-9" d="m125.53,97.66l6.63-3.71c-.58-.31-1.49-.3-2.06.02l-6.65,3.72c.59.3,1.5.29,2.07-.02Z"/>
          </g>
          <g>
            <path class="cls-8" d="m127.3,91.23l.06-.04c.58-.33.59-.85,0-1.17-.58-.33-1.52-.32-2.1,0l-6.7,3.75c-.58.32-.58.84,0,1.17,0,.01.02,0,.03.02l6.65-3.72c.57-.32,1.48-.32,2.06-.02Z"/>
            <path class="cls-9" d="m120.67,94.94l6.63-3.71c-.58-.31-1.49-.3-2.06.02l-6.65,3.72c.59.3,1.5.29,2.07-.02Z"/>
          </g>
          <g>
            <path class="cls-8" d="m122.44,88.51l.06-.04c.58-.33.59-.85,0-1.17-.58-.33-1.52-.32-2.1,0l-6.7,3.75c-.58.32-.58.84,0,1.17,0,.01.02,0,.03.02l6.65-3.72c.57-.32,1.48-.33,2.06-.02Z"/>
            <path class="cls-9" d="m115.81,92.22l6.63-3.71c-.58-.31-1.49-.3-2.06.02l-6.65,3.72c.59.3,1.5.29,2.07-.02Z"/>
          </g>
          <g>
            <path class="cls-8" d="m117.58,85.79l.06-.04c.58-.33.58-.85,0-1.17-.58-.33-1.52-.32-2.1,0l-6.7,3.75c-.58.32-.58.84,0,1.17,0,.01.02,0,.03.02l6.65-3.72c.57-.32,1.48-.32,2.06-.02Z"/>
            <path class="cls-9" d="m110.95,89.5l6.63-3.71c-.58-.31-1.49-.3-2.06.02l-6.65,3.72c.59.3,1.5.3,2.07-.02Z"/>
          </g>
          <g>
            <path class="cls-8" d="m112.73,83.07l.06-.04c.58-.32.59-.85,0-1.17-.58-.33-1.52-.32-2.1,0l-6.7,3.75c-.58.33-.58.84,0,1.17,0,.01.02,0,.03.02l6.65-3.72c.57-.32,1.48-.32,2.06-.02Z"/>
            <path class="cls-9" d="m106.09,86.79l6.63-3.71c-.58-.31-1.49-.3-2.06.02l-6.65,3.72c.59.3,1.5.29,2.07-.02Z"/>
          </g>
          <g>
            <path class="cls-8" d="m107.87,80.35l.06-.03c.58-.32.59-.85,0-1.17-.58-.33-1.52-.32-2.1,0l-6.7,3.75c-.58.33-.58.84,0,1.17,0,.01.02,0,.03.02l6.65-3.72c.57-.32,1.48-.32,2.06-.02Z"/>
            <path class="cls-9" d="m101.23,84.07l6.63-3.71c-.58-.31-1.49-.3-2.06.02l-6.65,3.72c.59.3,1.5.29,2.07-.02Z"/>
          </g>
          <g>
            <path class="cls-8" d="m103.01,77.64l.06-.04c.58-.32.58-.85,0-1.17-.58-.33-1.52-.32-2.1,0l-6.7,3.75c-.58.33-.58.84,0,1.17,0,.01.02,0,.03.02l6.65-3.72c.57-.32,1.48-.33,2.06-.02Z"/>
            <path class="cls-9" d="m96.37,81.35l6.63-3.71c-.58-.31-1.49-.3-2.06.02l-6.65,3.72c.59.3,1.5.29,2.07-.02Z"/>
          </g>
          <g>
            <path class="cls-8" d="m98.15,74.92l.06-.04c.58-.32.59-.85,0-1.17-.58-.33-1.52-.32-2.1,0l-6.7,3.75c-.58.33-.58.84,0,1.17,0,.01.02,0,.03.02l6.65-3.72c.57-.32,1.48-.32,2.06-.02Z"/>
            <path class="cls-9" d="m91.51,78.63l6.63-3.71c-.58-.31-1.49-.3-2.06.02l-6.65,3.72c.59.3,1.5.29,2.07-.02Z"/>
          </g>
          <g>
            <path class="cls-8" d="m93.29,72.2l.06-.04c.58-.32.59-.85,0-1.17-.58-.33-1.52-.32-2.1,0l-6.7,3.75c-.58.33-.58.84-.01,1.17.01.01.02,0,.03.02l6.65-3.72c.57-.32,1.48-.33,2.06-.02Z"/>
            <path class="cls-9" d="m86.65,75.91l6.63-3.71c-.58-.31-1.49-.3-2.06.02l-6.65,3.72c.59.3,1.5.29,2.07-.02Z"/>
          </g>
          <g>
            <path class="cls-8" d="m88.43,69.48l.06-.03c.58-.33.59-.85,0-1.17-.58-.33-1.52-.32-2.1,0l-6.7,3.75c-.58.33-.58.84,0,1.17,0,.01.02,0,.03.02l6.65-3.72c.57-.32,1.48-.32,2.06-.02Z"/>
            <path class="cls-9" d="m81.79,73.19l6.63-3.71c-.58-.31-1.49-.3-2.06.02l-6.65,3.72c.59.3,1.5.29,2.07-.02Z"/>
          </g>
          <g>
            <path class="cls-8" d="m83.57,66.76l.06-.04c.58-.33.59-.85,0-1.17-.58-.33-1.52-.32-2.1,0l-6.7,3.75c-.58.32-.58.84,0,1.17,0,.01.02,0,.03.02l6.65-3.72c.57-.32,1.48-.32,2.06-.02Z"/>
            <path class="cls-9" d="m76.93,70.47l6.63-3.71c-.58-.31-1.49-.3-2.06.02l-6.65,3.72c.59.3,1.5.29,2.07-.02Z"/>
          </g>
          <g>
            <path class="cls-8" d="m78.71,64.05l.06-.04c.58-.32.59-.85,0-1.17-.58-.33-1.52-.32-2.1,0l-6.7,3.75c-.58.32-.58.84,0,1.17,0,.01.02,0,.03.02l6.65-3.72c.57-.32,1.48-.32,2.06-.02Z"/>
            <path class="cls-9" d="m72.08,67.76l6.63-3.71c-.58-.31-1.49-.3-2.06.02l-6.65,3.72c.59.3,1.5.29,2.07-.02Z"/>
          </g>
          <g>
            <path class="cls-8" d="m73.85,61.33l.06-.04c.58-.33.59-.85,0-1.17-.58-.33-1.52-.32-2.1,0l-6.7,3.75c-.58.32-.58.84,0,1.17,0,.01.02,0,.03.02l6.65-3.72c.57-.32,1.48-.32,2.06-.02Z"/>
            <path class="cls-9" d="m67.22,65.04l6.63-3.71c-.58-.31-1.49-.3-2.06.02l-6.65,3.72c.59.3,1.5.29,2.07-.02Z"/>
          </g>
          <g>
            <path class="cls-8" d="m68.99,58.61l.06-.04c.58-.32.59-.85,0-1.17-.58-.33-1.52-.32-2.1,0l-6.7,3.75c-.58.32-.58.84,0,1.17,0,.01.02,0,.03.02l6.65-3.72c.57-.32,1.48-.32,2.06-.02Z"/>
            <path class="cls-9" d="m62.36,62.32l6.63-3.71c-.58-.31-1.49-.3-2.06.02l-6.65,3.72c.59.3,1.5.29,2.07-.02Z"/>
          </g>
          <g>
            <path class="cls-8" d="m64.13,55.89l.06-.04c.58-.32.59-.85,0-1.17-.58-.33-1.52-.32-2.1,0l-6.7,3.75c-.58.33-.58.84,0,1.17,0,.01.02,0,.03.02l6.65-3.72c.57-.32,1.48-.32,2.06-.02Z"/>
            <path class="cls-9" d="m57.5,59.6l6.63-3.71c-.58-.31-1.49-.3-2.06.02l-6.65,3.72c.59.3,1.5.29,2.07-.02Z"/>
          </g>
          <g>
            <path class="cls-8" d="m59.27,53.17l.06-.03c.58-.32.58-.84,0-1.17-.59-.32-1.52-.32-2.1,0l-6.7,3.75c-.58.32-.58.84,0,1.17,0,.01.02,0,.03.02l6.65-3.72c.57-.32,1.48-.33,2.06-.02Z"/>
            <path class="cls-9" d="m52.64,56.88l6.63-3.71c-.58-.31-1.49-.3-2.06.02l-6.65,3.72c.59.3,1.5.29,2.07-.02Z"/>
          </g>
        </g>
        <polygon class="cls-2" points="129.95 164.17 47.44 118.01 47.44 56.08 129.95 102.24 129.95 164.17"/>
      </g>
      <g>
        <g>
          <path class="cls-3" d="m134.57,111.58l3.37-5.66-1.04-.58c-.43-.24-1.03-.21-1.69.16-1.32.74-2.38,2.53-2.38,4,0,.74.26,1.25.7,1.5h0l1.04.58Z"/>
          <path class="cls-8" d="m133.87,110.08c0-1.47,1.07-3.26,2.38-4,1.32-.74,2.39-.14,2.39,1.33s-1.07,3.26-2.39,4c-1.31.74-2.38.14-2.38-1.33Z"/>
        </g>
        <g>
          <path class="cls-7" d="m137.49,112.54l2.77-4.65-2.45-1.37c-.35-.2-.84-.17-1.38.13-1.08.6-1.96,2.08-1.96,3.29,0,.61.22,1.03.57,1.23h0l2.45,1.37Z"/>
          <path class="cls-6" d="m136.91,111.31c0-1.21.88-2.68,1.96-3.29,1.08-.61,1.96-.12,1.96,1.1,0,1.21-.88,2.68-1.96,3.29-1.08.6-1.96.11-1.96-1.1Z"/>
        </g>
        <g>
          <path class="cls-3" d="m138.93,114.02l3.37-5.66-1.8-1c-.43-.24-1.03-.21-1.69.16-1.32.74-2.38,2.53-2.38,4,0,.74.27,1.25.7,1.49h0l1.8,1.01Z"/>
          <path class="cls-8" d="m138.23,112.52c0-1.47,1.07-3.26,2.38-4,1.32-.74,2.39-.14,2.39,1.33s-1.07,3.26-2.39,4c-1.32.74-2.38.14-2.38-1.33Z"/>
        </g>
        <g>
          <path class="cls-3" d="m143.76,117.32l3.91-6.55-4.25-2.38c-.5-.28-1.19-.24-1.95.19-1.53.85-2.76,2.93-2.76,4.63,0,.85.31,1.45.81,1.73h0l4.25,2.37Z"/>
          <path class="cls-4" d="m142.95,115.59c0-1.71,1.24-3.78,2.76-4.63s2.76-.16,2.76,1.55-1.24,3.78-2.76,4.63c-1.53.85-2.76.16-2.76-1.54Z"/>
        </g>
        <g>
          <path class="cls-1" d="m144.85,116.88l2.97-4.98-.49-.27c-.38-.21-.9-.18-1.48.14-1.16.65-2.1,2.23-2.1,3.52,0,.65.23,1.1.61,1.32h0l.49.28Z"/>
          <path class="cls-3" d="m144.24,115.57c0-1.3.94-2.87,2.1-3.52,1.16-.65,2.1-.12,2.1,1.18s-.94,2.87-2.1,3.52c-1.16.65-2.1.12-2.1-1.17Z"/>
        </g>
      </g>
      <g>
        <polygon class="cls-3" points="125.77 104.4 86.22 88.57 47.24 60.47 49.44 59.26 127.96 103.18 125.77 104.4"/>
        <polygon class="cls-4" points="127.96 160.99 125.77 162.21 122.77 133.16 125.77 104.4 127.96 103.18 127.96 160.99"/>
        <polygon class="cls-2" points="125.77 162.21 47.24 118.29 47.24 60.47 125.77 104.4 125.77 162.21"/>
        <g>
          <path class="cls-4" d="m52.71,118.68v.04c0,.38-.27.53-.61.34-.34-.19-.6-.64-.6-1.02v-52.5c0-.38.27-.53.6-.34,0,0,0,0,.02,0v52.47c0,.37.26.81.59,1Z"/>
          <path class="cls-3" d="m52.71,66.22v52.46c-.33-.19-.59-.63-.59-1v-52.47c.33.2.59.64.59,1.01Z"/>
          <path class="cls-4" d="m49.72,117.02v.03c0,.38-.28.53-.6.34-.34-.19-.61-.64-.61-1.02v-52.5c0-.38.28-.53.61-.34,0,0,0,0,.02,0v52.47c0,.37.26.82.59,1.01Z"/>
          <path class="cls-3" d="m49.72,64.55v52.47c-.33-.19-.59-.64-.59-1.01v-52.47c.32.2.59.64.59,1.01Z"/>
          <path class="cls-4" d="m55.7,120.36v.03c0,.38-.28.53-.61.34-.33-.19-.6-.64-.6-1.02v-52.5c0-.38.28-.53.6-.34,0,0,.02,0,.03.02v52.46c0,.37.26.82.59,1.01Z"/>
          <path class="cls-3" d="m55.7,67.9v52.47c-.33-.19-.59-.64-.59-1.01v-52.46c.33.2.59.64.59,1Z"/>
          <path class="cls-4" d="m58.69,122.04v.03c0,.38-.27.53-.6.34-.34-.19-.61-.64-.61-1.02v-52.5c0-.38.27-.53.61-.34,0,0,0,0,.02,0v52.47c0,.37.27.82.59,1.01Z"/>
          <path class="cls-3" d="m58.69,69.57v52.47c-.32-.19-.59-.64-.59-1.01v-52.47c.33.2.59.64.59,1.01Z"/>
          <path class="cls-4" d="m61.69,123.71v.03c0,.38-.28.53-.61.34-.34-.19-.6-.64-.6-1.02v-52.5c0-.38.27-.53.6-.34.01,0,.02,0,.03.02v52.46c0,.37.26.82.59,1.01Z"/>
          <path class="cls-3" d="m61.69,71.24v52.47c-.33-.19-.59-.64-.59-1.01v-52.46c.33.2.59.64.59,1Z"/>
          <path class="cls-4" d="m64.68,125.38v.03c0,.38-.28.53-.6.34-.34-.19-.61-.64-.61-1.02v-52.5c0-.38.28-.53.61-.34,0,0,0,0,.02,0v52.47c0,.37.26.82.59,1.01Z"/>
          <path class="cls-3" d="m64.68,72.92v52.47c-.33-.19-.59-.64-.59-1.01v-52.47c.33.2.59.65.59,1.01Z"/>
          <path class="cls-4" d="m67.66,127.05v.04c0,.38-.27.53-.6.34-.34-.19-.6-.64-.6-1.02v-52.5c0-.38.27-.53.6-.34,0,0,0,0,.02,0v52.47c0,.37.26.81.59,1Z"/>
          <path class="cls-3" d="m67.66,74.59v52.46c-.33-.19-.59-.63-.59-1v-52.47c.33.2.59.64.59,1.01Z"/>
          <path class="cls-4" d="m70.66,128.73v.03c0,.38-.28.53-.61.34-.33-.19-.61-.64-.61-1.02v-52.5c0-.38.28-.53.61-.34,0,0,0,0,.02,0v52.47c0,.37.26.82.59,1.01Z"/>
          <path class="cls-3" d="m70.66,76.26v52.47c-.33-.19-.59-.64-.59-1.01v-52.47c.32.2.59.64.59,1.01Z"/>
          <path class="cls-4" d="m73.65,130.39v.04c0,.38-.27.53-.6.34-.34-.19-.61-.65-.61-1.02v-52.5c0-.38.27-.53.61-.34,0,0,0,0,.02,0v52.47c0,.37.26.81.59,1Z"/>
          <path class="cls-3" d="m73.65,77.93v52.46c-.33-.19-.59-.64-.59-1v-52.47c.33.2.59.65.59,1.01Z"/>
          <path class="cls-4" d="m76.64,132.08v.03c0,.38-.28.53-.61.34-.34-.19-.6-.64-.6-1.02v-52.5c0-.38.28-.53.6-.34,0,0,.02,0,.03.02v52.46c0,.37.26.82.59,1.01Z"/>
          <path class="cls-3" d="m76.64,79.61v52.47c-.33-.19-.59-.64-.59-1.01v-52.46c.33.2.59.64.59,1Z"/>
          <path class="cls-4" d="m79.63,133.75v.03c0,.38-.27.53-.6.34-.34-.19-.61-.65-.61-1.02v-52.5c0-.38.28-.53.61-.34,0,0,0,0,.02,0v52.47c0,.37.27.82.59,1.01Z"/>
          <path class="cls-3" d="m79.63,81.28v52.47c-.32-.19-.59-.65-.59-1.01v-52.47c.33.2.59.64.59,1.01Z"/>
          <path class="cls-4" d="m82.63,135.42v.03c0,.38-.28.53-.61.34-.34-.19-.6-.64-.6-1.02v-52.5c0-.38.27-.53.6-.34,0,0,0,0,.02,0v52.47c0,.37.27.82.6,1.01Z"/>
          <path class="cls-3" d="m82.63,135.42c-.33-.19-.6-.64-.59-1.01v-52.47c.32.2.58.64.58,1.01v52.47Z"/>
          <path class="cls-4" d="m85.61,137.09v.03c0,.38-.27.53-.61.34-.33-.19-.6-.64-.6-1.02v-52.5c0-.38.28-.53.61-.34,0,0,0,0,.02,0v52.47c0,.37.26.82.59,1.01Z"/>
          <path class="cls-3" d="m85.61,84.63v52.47c-.33-.19-.59-.64-.59-1.01v-52.47c.32.2.59.64.59,1.01Z"/>
          <path class="cls-4" d="m88.6,138.76v.04c0,.38-.27.53-.6.34-.34-.19-.61-.64-.61-1.02v-52.5c0-.38.27-.53.61-.34,0,0,0,0,.02,0v52.47c0,.37.26.81.59,1Z"/>
          <path class="cls-3" d="m88.6,86.3v52.46c-.33-.19-.59-.64-.59-1v-52.47c.33.2.59.64.59,1.01Z"/>
          <path class="cls-4" d="m91.6,140.44v.03c0,.38-.28.53-.61.34-.34-.19-.6-.64-.6-1.02v-52.5c0-.38.28-.53.6-.34,0,0,.02,0,.03.02v52.46c0,.37.26.82.59,1.01Z"/>
          <path class="cls-3" d="m91.6,87.98v52.47c-.33-.19-.59-.65-.59-1.01v-52.46c.33.2.59.64.59,1Z"/>
          <path class="cls-4" d="m94.59,142.12v.03c0,.38-.27.53-.61.34-.34-.19-.61-.65-.61-1.02v-52.5c0-.38.28-.53.61-.34,0,0,0,0,.02,0v52.47c0,.37.27.82.59,1.01Z"/>
          <path class="cls-3" d="m94.59,89.65v52.47c-.32-.19-.59-.64-.59-1.01v-52.47c.33.2.59.64.59,1.01Z"/>
          <path class="cls-4" d="m97.58,143.79v.03c0,.38-.28.53-.61.34-.34-.19-.6-.64-.6-1.02v-52.5c0-.38.27-.53.6-.34,0,0,.02,0,.03.02v52.46c0,.37.26.82.59,1.01Z"/>
          <path class="cls-3" d="m97.58,91.32v52.47c-.33-.19-.6-.64-.59-1.01v-52.46c.33.2.59.64.59,1Z"/>
          <path class="cls-4" d="m100.57,145.46v.03c0,.38-.28.53-.6.34-.34-.19-.61-.64-.61-1.02v-52.5c0-.38.28-.53.61-.34,0,0,0,0,.02,0v52.47c0,.37.26.82.59,1.01Z"/>
          <path class="cls-3" d="m100.57,93v52.47c-.33-.19-.59-.64-.59-1.01v-52.47c.32.2.59.64.59,1.01Z"/>
          <path class="cls-4" d="m103.56,147.13v.04c0,.38-.27.53-.61.34-.34-.19-.6-.64-.6-1.02v-52.5c0-.38.27-.53.6-.34,0,0,0,0,.02,0v52.47c0,.37.26.81.59,1Z"/>
          <path class="cls-3" d="m103.56,94.67v52.46c-.33-.19-.59-.64-.59-1v-52.47c.33.2.59.64.59,1.01Z"/>
          <path class="cls-4" d="m106.56,148.81v.03c0,.38-.28.53-.61.34-.34-.19-.6-.64-.6-1.02v-52.5c0-.38.27-.53.6-.34,0,0,.02,0,.03.02v52.46c0,.37.26.82.59,1.01Z"/>
          <path class="cls-3" d="m106.56,96.34v52.47c-.33-.19-.59-.64-.59-1.01v-52.46c.33.2.59.64.59,1Z"/>
          <path class="cls-4" d="m109.54,150.48v.03c0,.38-.27.53-.6.34-.34-.19-.61-.64-.6-1.02v-52.5c0-.38.27-.53.6-.34,0,0,0,0,.02,0v52.47c0,.37.27.82.59,1.01Z"/>
          <path class="cls-3" d="m109.54,98.01v52.47c-.32-.19-.59-.64-.59-1.01v-52.47c.33.2.59.64.59,1.01Z"/>
          <path class="cls-4" d="m112.54,152.15v.03c0,.38-.28.53-.61.34-.34-.19-.6-.64-.6-1.02v-52.5c0-.38.27-.53.6-.34,0,0,.02,0,.03.02v52.46c0,.37.26.82.59,1.01Z"/>
          <path class="cls-3" d="m112.54,99.69v52.47c-.33-.19-.59-.64-.59-1.01v-52.46c.33.2.59.64.59,1Z"/>
          <path class="cls-4" d="m115.53,153.83v.03c0,.38-.28.53-.6.34-.34-.19-.61-.64-.61-1.02v-52.5c0-.38.28-.53.61-.34,0,0,0,0,.02,0v52.47c0,.37.26.82.59,1.01Z"/>
          <path class="cls-3" d="m115.53,101.36v52.47c-.33-.19-.59-.64-.59-1.01v-52.47c.33.2.59.64.59,1.01Z"/>
          <path class="cls-4" d="m118.52,155.5v.03c0,.38-.28.53-.61.34-.34-.19-.6-.64-.6-1.02v-52.5c0-.38.27-.53.6-.34,0,0,0,0,.02,0v52.47c0,.37.27.82.59,1.01Z"/>
          <path class="cls-3" d="m118.52,155.5c-.33-.19-.59-.64-.59-1.01v-52.47c.33.2.59.64.59,1.01v52.47Z"/>
          <path class="cls-4" d="m121.51,157.17v.03c0,.38-.28.53-.61.34-.33-.19-.6-.64-.6-1.02v-52.5c0-.38.28-.53.6-.34,0,0,.02,0,.03.02v52.46c0,.37.26.82.59,1.01Z"/>
          <path class="cls-3" d="m121.51,104.71v52.47c-.33-.19-.59-.64-.59-1.01v-52.46c.33.2.59.64.59,1Z"/>
          <path class="cls-4" d="m124.5,158.84v.04c0,.38-.27.53-.61.34-.34-.19-.6-.64-.6-1.02v-52.5c0-.38.27-.53.6-.34,0,0,0,0,.02,0v52.47c0,.37.26.81.59,1Z"/>
          <path class="cls-3" d="m124.5,106.38v52.46c-.33-.19-.59-.63-.59-1v-52.47c.33.2.59.64.59,1.01Z"/>
        </g>
      </g>
    </g>
  </g>
</svg>