<?xml version="1.0" encoding="UTF-8"?>
<svg id="Capa_2" data-name="Capa 2" xmlns="http://www.w3.org/2000/svg" viewBox="0 0 205.65 207.23">
  <defs>
    <style>
      .cls-1 {
        fill: #eb5c45;
      }

      .cls-2 {
        fill: #527fa2;
      }

      .cls-3 {
        fill: #fff;
      }

      .cls-4 {
        fill: #dae5f6;
      }

      .cls-5 {
        fill: #b3c5db;
      }

      .cls-6 {
        fill: #93d3f5;
      }

      .cls-7 {
        fill: #b6caea;
      }

      .cls-8 {
        fill: #ffec7b;
      }

      .cls-9 {
        fill: #679fc9;
      }

      .cls-10 {
        fill: #82a1cc;
      }

      .cls-11 {
        fill: #0a3652;
      }

      .cls-12 {
        fill: #c2c1c1;
      }

      .cls-13 {
        fill: #f6a62e;
      }

      .cls-14 {
        fill: #e9f1fb;
      }
    </style>
  </defs>
  <g id="Capa_1-2" data-name="Capa 1">
    <path class="cls-12" d="m168.74,184.03l-85.54,22.63c-6.02,1.59-12.44-.19-16.77-4.67L4.85,138.43c-4.25-4.39-5.86-10.71-4.22-16.6L24.72,35.23c1.64-5.89,6.28-10.47,12.19-12.03L122.46.57c6.02-1.59,12.44.19,16.77,4.67l61.57,63.55c4.25,4.39,5.86,10.71,4.22,16.6l-24.09,86.6c-1.64,5.89-6.28,10.47-12.19,12.03Z"/>
    <g>
      <polygon class="cls-7" points="136.57 183.59 66.57 143.18 66.57 40.92 74.69 52.01 125.99 82.86 136.57 81.33 136.57 183.59"/>
      <polygon class="cls-5" points="136.57 183.59 66.57 143.18 67.37 142.71 102.63 152.6 132.33 180.22 136.57 183.59"/>
      <polygon class="cls-3" points="132.33 83.78 92.71 66.14 67.37 46.27 66.57 40.92 136.57 81.33 132.33 83.78"/>
      <polygon class="cls-4" points="132.33 180.22 67.37 142.71 67.37 46.27 132.33 83.78 132.33 180.22"/>
      <polygon class="cls-14" points="128.86 165.64 71 132.23 71 101.9 128.86 135.3 128.86 165.64"/>
      <g>
        <g>
          <g>
            <path class="cls-2" d="m86.94,120.5c-.06-1.63-1.18-3.54-2.57-4.34l-6.87-3.98c-.71-.41-1.35-.45-1.82-.18l-.99.56,10.6,10.17.93-.53c.44-.27.71-.83.72-1.62.02-.03-.01-.05,0-.08Z"/>
            <path class="cls-9" d="m83.46,116.66l-6.87-3.98c-1.41-.81-2.55-.17-2.56,1.47.02,1.64,1.16,3.6,2.57,4.42l6.87,3.98c1.42.81,2.55.17,2.57-1.46.01-.03-.02-.05,0-.08-.07-1.64-1.19-3.54-2.58-4.34Z"/>
          </g>
          <g>
            <path class="cls-2" d="m86.94,132.2c-.06-1.64-1.18-3.54-2.57-4.34l-6.87-3.98c-.71-.41-1.35-.45-1.82-.17l-.99.55,10.6,10.17.93-.53c.44-.27.71-.83.72-1.62.02-.03-.01-.06,0-.08Z"/>
            <path class="cls-9" d="m83.46,128.36l-6.87-3.98c-1.41-.82-2.55-.17-2.56,1.46.02,1.64,1.16,3.6,2.57,4.42l6.87,3.98c1.42.81,2.55.17,2.57-1.46.01-.03-.02-.06,0-.08-.07-1.63-1.19-3.54-2.58-4.34Z"/>
          </g>
        </g>
        <g>
          <g>
            <path class="cls-2" d="m105.79,131.38c-.06-1.63-1.18-3.54-2.57-4.34l-6.87-3.98c-.71-.41-1.35-.45-1.81-.18l-.99.56,10.59,10.16.94-.53c.44-.27.71-.82.72-1.61.01-.03-.01-.05,0-.08Z"/>
            <path class="cls-9" d="m102.31,127.55l-6.87-3.98c-1.41-.81-2.56-.17-2.56,1.46s1.16,3.6,2.57,4.42l6.87,3.98c1.42.82,2.55.17,2.56-1.46.02-.03-.01-.06,0-.08-.06-1.64-1.18-3.54-2.57-4.34Z"/>
          </g>
          <g>
            <path class="cls-2" d="m105.79,143.08c-.06-1.63-1.18-3.54-2.57-4.34l-6.87-3.98c-.71-.41-1.35-.45-1.81-.18l-.99.55,10.59,10.17.94-.53c.44-.27.71-.82.72-1.61.01-.03-.01-.05,0-.08Z"/>
            <path class="cls-9" d="m102.31,139.24l-6.87-3.98c-1.41-.81-2.56-.16-2.56,1.46s1.16,3.6,2.57,4.42l6.87,3.98c1.42.81,2.55.16,2.56-1.47.02-.03-.01-.05,0-.08-.06-1.63-1.18-3.54-2.57-4.34Z"/>
          </g>
        </g>
        <g>
          <g>
            <path class="cls-2" d="m124.63,142.26c-.06-1.63-1.18-3.54-2.57-4.34l-6.87-3.98c-.71-.41-1.35-.45-1.82-.18l-.99.55,10.6,10.17.93-.53c.44-.27.71-.83.72-1.62.02-.03-.01-.05,0-.08Z"/>
            <path class="cls-9" d="m121.16,138.42l-6.87-3.98c-1.41-.82-2.55-.17-2.56,1.46.01,1.64,1.16,3.6,2.57,4.42l6.87,3.98c1.42.82,2.55.17,2.57-1.46.02-.03-.01-.06,0-.08-.06-1.64-1.18-3.55-2.57-4.35Z"/>
          </g>
          <g>
            <path class="cls-13" d="m124.63,153.96c-.06-1.64-1.18-3.54-2.57-4.34l-6.87-3.98c-.71-.41-1.35-.45-1.82-.18l-.99.55,10.6,10.17.93-.52c.44-.27.71-.83.72-1.62.02-.03-.01-.05,0-.08Z"/>
            <path class="cls-8" d="m121.16,150.12l-6.87-3.98c-1.41-.82-2.55-.16-2.56,1.47.01,1.64,1.16,3.6,2.57,4.42l6.87,3.98c1.42.81,2.55.17,2.57-1.46.02-.03-.01-.06,0-.08-.06-1.64-1.18-3.54-2.57-4.35Z"/>
          </g>
        </g>
      </g>
      <polygon class="cls-14" points="128.86 124.73 71 91.32 71 60.99 128.86 94.4 128.86 124.73"/>
      <g>
        <polygon class="cls-7" points="106.97 107.97 106.97 109.27 74.23 90.41 74.23 65.33 75.35 65.98 75.35 89.77 106.97 107.97"/>
        <polygon class="cls-11" points="106.97 84.19 106.97 107.97 75.35 89.77 75.35 65.98 106.97 84.19"/>
        <g>
          <g>
            <path class="cls-6" d="m84.61,87.12l1.83,1.06v-5.62l-1.58-.91v-1.39c.91.33,1.5.39,2.09.32l1.43.83v7.89l1.57.91v1.82l-5.35-3.09v-1.82Z"/>
            <path class="cls-6" d="m91.23,90.29c0-1.18.63-1.53,1.43-1.56v-.06c-.65-.94-1.13-1.92-1.13-2.95,0-1.65,1.13-2.03,2.69-1.12,1.54.89,2.56,2.53,2.56,4.14,0,.93-.52,1.38-1.1,1.49v.06c.81.97,1.46,2.1,1.46,3.38,0,1.53-1.19,2-2.98.97-1.68-.97-2.93-2.78-2.93-4.35Zm4.09,2.26c0-.86-.71-1.59-1.77-2.72-.37.18-.65.58-.65,1.17,0,.86.6,1.71,1.3,2.11.65.38,1.13.25,1.13-.56Zm-.12-4.57c0-.75-.38-1.48-1.02-1.84-.52-.3-.94-.18-.94.57,0,.8.58,1.51,1.44,2.39.33-.25.52-.62.52-1.13Z"/>
          </g>
          <path class="cls-6" d="m99.8,88.52c-1.13-.65-2.05-2.24-2.05-3.54s.92-1.83,2.05-1.18c1.13.65,2.05,2.24,2.05,3.54s-.92,1.83-2.04,1.18Zm0-3.77c-.67-.39-1.22-.07-1.22.7s.55,1.72,1.22,2.11c.67.39,1.22.07,1.22-.71,0-.78-.55-1.72-1.22-2.11Z"/>
        </g>
      </g>
      <g>
        <path class="cls-10" d="m117.07,114.23l-8.71-15.08,4.64-2.67c1.11-.64,2.65-.55,4.36.43,3.4,1.96,6.14,6.73,6.14,10.65,0,1.97-.69,3.34-1.8,3.98h0l-4.64,2.68Z"/>
        <path class="cls-4" d="m118.88,110.24c0-3.92-2.76-8.7-6.15-10.66-3.41-1.96-6.16-.37-6.16,3.56s2.76,8.69,6.16,10.65c3.39,1.96,6.15.37,6.15-3.55Z"/>
        <path class="cls-1" d="m115.62,104.66c0-.66-.47-1.47-1.05-1.8-.57-.33-1.04-.06-1.04.6s.47,1.47,1.04,1.8c.58.34,1.05.07,1.05-.6Z"/>
      </g>
      <path class="cls-2" d="m125.6,96.14l-15.53-8.97c-.78-.45-1.4-.09-1.41.81,0,.91.64,1.98,1.42,2.43l15.53,8.97c.78.45,1.4.1,1.41-.8,0-.02-.01-.03,0-.04-.04-.9-.65-1.95-1.42-2.39Z"/>
    </g>
  </g>
</svg>