<?xml version="1.0" encoding="UTF-8"?>
<svg id="Capa_2" data-name="Capa 2" xmlns="http://www.w3.org/2000/svg" viewBox="0 0 276.43 168.01">
  <defs>
    <style>
      .cls-1 {
        font-family: SegoeScript, 'Segoe Script';
        font-size: 40.66px;
      }

      .cls-1, .cls-2 {
        isolation: isolate;
      }

      .cls-1, .cls-3 {
        fill: #f4efef;
      }

      .cls-2 {
        fill: none;
      }

      .cls-4 {
        fill: #1d1d1b;
      }
    </style>
  </defs>
  <g id="Capa_2-2" data-name="Capa 2">
    <rect class="cls-4" width="276.43" height="155.52"/>
    <g id="Capa_1-2" data-name="Capa 1-2">
      <g>
        <path class="cls-3" d="m92.72,87.63c.08-24.56.06-49.12.05-73.68,0-5.87-1.79-7-7.67-5.42,0,0-.27.03-.42.11-.2.11-.47.6-.75.77-4.35,6.78-9.05,13.4-12.99,20.39-7.04,12.48-14.92,24.49-22.24,36.81-1.76,2.96-2.82,2.61-4.47-.04-3.63-5.81-7.58-11.43-11.17-17.26-7.76-12.59-15.46-25.24-23.01-37.96-1.86-3.12-4.79-2.22-7.46-1.96-2.48.25-1.67,2.58-1.68,3.91-.1,25.03.05,50.07-.2,75.1-.04,4.02,1.67,4.03,4.89,4.16,3.55.14,4.33-.87,4.3-4.15-.19-18.89-.1-37.78-.08-56.68,0-1.27.15-2.54.29-4.71,10.18,16.51,19.78,32.12,29.42,47.71,1.16,1.87,2.43,3.7,3.89,5.37,1.46,1.68,5.23,1.45,6.33-.29,6.44-10.29,12.84-20.6,19.23-30.92,4.28-6.91,8.5-13.84,12.75-20.77,2.86.58,1.5,2.76,1.51,4.14.1,18.34.05,36.68.1,55.02,0,1.67-.58,3.45.55,5.03h7.79c2.13-1.18,1.05-3.13,1.06-4.68h-.02Z"/>
        <path class="cls-3" d="m81.72,28.34c.19-1.39.88-2.29,1.85-.64.57.97.21,2.45.21,3.7.04,20.38.07,40.75.1,61.13-2.15-1.16-1.03-3.1-1.04-4.62-.1-18.45-.06-36.91-.13-55.36,0-1.4.93-3.15-.99-4.21Z"/>
        <path class="cls-3" d="m151.89,8.45c-4.08,0-8.17.02-12.25.03,4.08-1.35,7.86-.85,12.25-.03Z"/>
        <path class="cls-3" d="m135.68,92.79c4.05,0,8.11.01,12.16.02-6.08.73-7.91.35-12.16-.02Z"/>
        <path class="cls-3" d="m165.65,29.26c.08-3.14.16-6.28.24-9.43.34,3.79,1.19,3.9-.24,9.43Z"/>
        <path class="cls-3" d="m186.45,85.51c-2.55-2.24-4.64-4.98-7.32-7.06-2.85-2.22-2.24-4.09-.77-6.78,2.34-4.28,3.4-8.55,5.13-12.81,1.62-4.02-2.38-3.31-4.55-3.75-1.91-.38-3.01-.3-3.27,2.33-.31,3.11-1.89,6.11-3,9.14-1.19,3.24-2.37,3.45-5.03.81-6.12-6.07-12.14-12.23-18.3-18.26-1.87-1.83-2.54-2.61.55-4.27,6.79-3.66,14.19-7.7,15.76-15.58.64-3.24.22-5.41.24-9.43-1.35-4.17-4.2-7.14-8.27-9.07-1.85-.88-3.81-1.55-5.72-2.31-4.09-.5-8.11-1.18-12.19-.59-6.41.42-11.11,4.29-13.89,9.46-3.98,7.4-2.8,14.63,2.25,21.3,1.79,2.36,5.85,4.64,5.15,6.83-.74,2.31-4.88,3.59-7.42,5.47-6.31,4.65-11.87,9.52-13.13,17.85-2.17,14.32,11.17,23.15,23.01,24.04,4.05.56,8.11.52,12.16.02,8.06-1.3,15.76-3.34,21.39-9.49,1.56-1.71,2.6-.53,3.63.42,2.49,2.31,5.1,4.55,7.29,7.09,2.44,2.84,4.07,1.76,6.44-.16,2.57-2.09,1.91-3.36-.15-5.17v-.03Zm-54.68-59.23c-.2-5.81,3.22-9.5,9.22-11.3,4.98-1.49,9.32-.01,13.49,1.82,3.43,1.51,3.63,4.92,3.27,7.44.02,6.7-8.84,15.93-15.15,16.43-.75.06-1.75-.18-2.28-.65-4.28-3.77-8.34-7.72-8.55-13.74h0Zm30.86,53.29c-6.27,4.8-13.34,6.48-22.27,6.5-3.75.33-7.97-.91-12.19-3.54-10.06-6.24-7.81-19.24.36-24.88,11.08-7.65,10.96-7.56,20.21,2.24,4.53,4.8,9.58,9.16,14.41,13.7,2.35,2.21,2.43,3.72-.51,5.97h-.01Z"/>
        <path class="cls-3" d="m265.29,18.18c-6.95-7.32-16.38-8.08-25.95-9.38-1.81.11-3.74.03-5.61-.02,1.97.14-1.79.02,0,0-11.31.1-16.92.64-28.23.75v82.39c2.52.01,5.04.03,7.56.04.13-.46.22-.93.31-1.39,0-6.76,0-13.51.12-20.26.02-1.24-.14-2.37-.1-3.81-.22-.39.55-.72.93-.74,9.15-.06,18.3.11,27.44-.25,11.66-.47,25.87-5.69,29.93-19.03,3.19-10.48,1.4-20.08-6.4-28.29h0Zm-2.04,25.93c-3.44,8.56-10.31,12.67-19.66,13.59-9.65,1.64-19.36.58-29.04.62-1.27-.66-1.08-1.82-1.08-2.89-.02-11.89-.04-23.77-.02-35.66,0-.99-.44-2.28,1.17-2.71,10.53-.45,21.09-.49,31.51.87,6.91.9,12.35,3.96,15.6,10.85.56,1.19,1.46,1.87,1.75,3.21,1.6,4.07,1.69,8.11-.22,12.12h0Z"/>
        <g class="cls-2">
          <text class="cls-1" transform="translate(43.74 147.87) scale(.91 1)"><tspan x="0" y="0">CONFORT</tspan></text>
        </g>
      </g>
    </g>
  </g>
</svg>