<?xml version="1.0" standalone="no"?>
<!DOCTYPE svg PUBLIC "-//W3C//DTD SVG 20010904//EN"
 "http://www.w3.org/TR/2001/REC-SVG-20010904/DTD/svg10.dtd">
<svg version="1.0" xmlns="http://www.w3.org/2000/svg"
 width="300.000000pt" height="226.000000pt" viewBox="0 0 300.000000 226.000000"
 preserveAspectRatio="xMidYMid meet">
<metadata>
Created by potrace 1.12, written by Peter Selinger 2001-2015
</metadata>
<g transform="translate(0.000000,226.000000) scale(0.100000,-0.100000)"
fill="#000000" stroke="none">
<path d="M0 1130 l0 -1130 1500 0 1500 0 0 1130 0 1130 -1500 0 -1500 0 0
-1130z m1757 983 c71 -37 105 -120 83 -204 -13 -47 -98 -137 -151 -159 -16 -7
-29 -18 -27 -25 2 -7 54 -66 116 -131 80 -82 116 -114 122 -105 6 11 34 93 47
140 2 9 12 12 35 7 17 -3 34 -8 37 -11 8 -9 -20 -107 -46 -159 l-25 -49 62
-62 62 -63 -23 -31 c-12 -17 -25 -31 -28 -31 -3 0 -31 27 -62 61 l-56 61 -46
-35 c-73 -56 -147 -79 -253 -79 -98 -1 -154 17 -222 69 -62 47 -86 136 -61
227 13 46 70 111 144 162 30 20 55 40 55 43 0 3 -10 17 -21 31 -71 87 -94 169
-70 242 15 46 65 92 121 112 58 21 156 15 207 -11z m-1473 -15 c11 -18 54 -91
96 -163 42 -71 119 -203 171 -292 51 -90 96 -163 99 -163 3 0 38 57 78 128
101 177 185 323 243 420 27 45 49 87 49 93 0 6 18 9 43 7 l42 -3 0 -440 0
-440 -45 0 -45 0 -3 345 -2 345 -22 -35 c-12 -19 -61 -105 -110 -190 -203
-351 -209 -361 -231 -358 -19 3 -71 80 -179 269 -14 24 -62 107 -107 184 l-81
140 0 -353 0 -352 -45 0 -45 0 0 445 0 445 38 0 c32 0 40 -5 56 -32z m2456 -7
c71 -28 126 -81 158 -149 21 -47 24 -64 20 -136 -5 -98 -28 -146 -93 -204 -73
-64 -114 -75 -317 -80 l-178 -4 0 -139 0 -139 -50 0 -50 0 0 441 0 441 228 -4
c208 -4 232 -6 282 -27z m-1708 -1055 l11 -25 29 22 c20 15 44 21 80 22 48 0
54 -3 75 -34 13 -20 23 -27 23 -18 0 23 53 57 88 57 29 0 30 -2 46 -71 9 -39
16 -79 17 -88 1 -19 13 24 29 102 7 37 16 57 26 57 8 0 14 -9 14 -21 l0 -20
26 20 c21 17 41 21 95 21 59 0 67 -2 62 -16 -5 -15 -3 -15 25 0 77 40 142 8
142 -71 0 -90 -53 -163 -119 -163 -49 0 -68 37 -53 106 13 64 45 114 73 114
20 0 26 -15 9 -25 -5 -3 -17 -31 -26 -61 -27 -95 6 -143 46 -65 42 83 35 161
-15 161 -53 0 -89 -32 -90 -80 0 -9 -8 -14 -18 -12 -9 2 -17 -2 -17 -8 0 -5
-11 -10 -24 -10 -27 0 -32 -8 -41 -74 -6 -40 -10 -46 -31 -46 -29 0 -29 0 -4
120 10 52 17 97 14 100 -11 11 -35 -36 -31 -62 4 -31 -5 -36 -25 -14 -11 12
-16 1 -28 -63 -14 -69 -18 -76 -41 -79 -23 -3 -26 1 -38 61 -18 93 -26 97 -41
16 -12 -63 -30 -93 -46 -77 -2 3 4 46 16 97 25 112 26 128 5 111 -8 -7 -15
-28 -15 -47 0 -29 -3 -34 -22 -31 -17 2 -23 -4 -32 -33 -25 -81 -101 -125
-146 -84 -47 42 2 205 61 205 18 0 18 -2 -2 -39 -11 -22 -23 -65 -26 -95 -5
-52 -4 -56 15 -56 32 0 64 75 60 142 -3 52 -4 53 -36 56 -45 5 -80 -20 -88
-62 -4 -24 -10 -33 -20 -29 -8 3 -14 14 -14 24 0 10 -6 18 -12 17 -9 -2 -12 7
-10 25 4 39 -32 37 -53 -4 -22 -41 -35 -129 -24 -151 12 -22 47 -23 77 -2 26
18 30 4 4 -19 -31 -29 -77 -40 -104 -26 -33 17 -38 28 -38 84 0 58 28 125 61
149 36 25 87 21 101 -8z m960 12 c22 -18 27 -39 16 -68 -6 -14 -11 -58 -13
-99 -2 -40 -6 -75 -9 -78 -2 -3 -14 -2 -26 2 -18 6 -21 12 -16 36 3 16 9 42
12 58 4 20 2 30 -9 34 -13 5 -19 -7 -30 -56 -11 -51 -17 -63 -35 -65 -27 -4
-28 6 -3 117 11 46 25 88 33 92 28 18 36 10 31 -33 l-6 -43 22 19 c14 13 21
29 19 45 -3 22 -9 26 -40 29 -44 4 -78 -27 -78 -70 0 -30 -17 -38 -26 -13 -25
65 101 138 158 93z m231 1 c37 -1 38 -2 24 -22 -12 -17 -23 -21 -50 -19 -33 2
-36 0 -42 -30 -34 -163 -35 -168 -62 -168 -21 0 -24 3 -19 23 9 32 36 170 36
185 0 16 -25 15 -39 -1 -6 -8 -13 -29 -15 -48 -3 -19 -5 -36 -5 -38 -1 -2 -8
2 -17 10 -11 9 -14 22 -10 42 12 58 47 79 116 71 25 -3 62 -5 83 -5z m-1215
-531 c16 -16 15 -63 -1 -76 -6 -6 -28 -12 -47 -14 -27 -2 -36 -8 -38 -25 -7
-50 -17 -19 -17 52 l0 75 46 0 c25 0 50 -5 57 -12z m147 -66 c19 -40 30 -72
25 -72 -5 0 -14 9 -20 20 -8 15 -21 20 -51 20 -32 0 -42 -4 -46 -20 -5 -18
-23 -29 -23 -13 0 18 64 143 73 140 5 -1 24 -35 42 -75z m151 69 c-3 -5 -15
-7 -26 -4 -19 5 -20 0 -20 -66 0 -41 -4 -71 -10 -71 -6 0 -10 30 -10 69 l0 70
-32 4 c-18 2 -2 5 35 5 39 1 66 -2 63 -7z m120 -58 c16 -37 31 -71 32 -75 2
-4 -1 -8 -6 -8 -6 0 -14 9 -17 20 -5 16 -15 20 -50 20 -34 0 -44 -4 -48 -20
-3 -11 -10 -20 -15 -20 -6 0 4 34 21 75 18 41 37 75 43 75 6 0 24 -30 40 -67z
m168 61 c30 -11 16 -20 -31 -20 -40 1 -49 -3 -62 -25 -13 -24 -13 -29 2 -53
13 -20 26 -26 52 -26 30 0 35 3 35 24 0 14 5 28 10 31 6 4 10 -8 10 -28 0 -37
-12 -47 -59 -47 -62 0 -94 81 -51 128 20 22 61 29 94 16z m181 -19 c14 -13 25
-36 25 -50 0 -36 -42 -75 -80 -75 -38 0 -80 39 -80 75 0 36 42 75 80 75 19 0
40 -9 55 -25z m116 -32 l44 -57 3 57 c4 84 22 69 22 -18 0 -41 -4 -75 -9 -75
-6 0 -29 25 -53 55 l-43 56 -3 -56 c-4 -82 -22 -66 -22 20 0 41 4 75 9 75 5 0
28 -26 52 -57z m129 -18 c0 -43 -4 -75 -10 -75 -6 0 -10 32 -10 75 0 43 4 75
10 75 6 0 10 -32 10 -75z m145 -3 c19 -40 30 -72 25 -72 -5 0 -14 9 -20 20
-15 29 -85 28 -100 -1 -7 -11 -14 -18 -17 -15 -8 8 59 147 70 143 5 -1 24 -35
42 -75z m-1186 -278 c17 -36 31 -70 31 -75 0 -17 -19 -9 -25 11 -9 30 -77 28
-98 -2 -28 -43 -24 -13 9 60 18 39 38 72 43 72 5 0 23 -30 40 -66z m165 44
c20 -28 20 -43 1 -62 -12 -12 -13 -20 -5 -35 12 -24 13 -31 2 -31 -5 0 -15 11
-22 25 -8 16 -22 25 -37 25 -18 0 -23 -5 -23 -25 0 -14 -4 -25 -10 -25 -6 0
-10 32 -10 75 l0 75 44 0 c35 0 48 -5 60 -22z m150 16 c30 -11 16 -20 -26 -16
-32 3 -45 0 -55 -14 -32 -44 -4 -94 53 -94 31 0 34 2 34 31 0 17 4 28 10 24
14 -9 13 -48 -2 -63 -37 -37 -128 8 -128 63 0 51 63 89 114 69z m129 -1 c-40
-4 -43 -6 -43 -34 0 -27 3 -29 43 -31 l42 -1 -42 -4 c-40 -4 -43 -6 -43 -33 0
-27 3 -29 48 -33 46 -3 46 -3 -10 -5 l-58 -2 0 75 0 75 53 -2 c50 -1 50 -2 10
-5z m138 -50 l44 -58 3 58 c4 84 22 70 22 -18 0 -42 -4 -75 -10 -75 -5 0 -29
26 -52 57 l-43 57 -3 -57 c-4 -84 -22 -69 -22 18 0 41 4 75 9 75 5 0 28 -26
52 -57z m187 50 c-27 -4 -28 -6 -28 -74 0 -39 -4 -69 -10 -69 -6 0 -10 30 -10
69 0 68 -1 70 -27 74 -16 2 1 4 37 4 36 0 53 -2 38 -4z m64 -68 c-2 -41 -7
-75 -10 -75 -4 0 -7 34 -7 75 0 43 4 75 10 75 6 0 9 -29 7 -75z m109 18 l44
-57 3 57 c4 84 22 69 22 -18 0 -42 -4 -75 -10 -75 -5 0 -29 26 -52 57 l-43 57
-3 -57 c-4 -84 -22 -69 -22 18 0 41 4 75 9 75 5 0 28 -26 52 -57z m205 -10
c16 -37 31 -71 32 -75 2 -4 -1 -8 -6 -8 -6 0 -14 9 -17 20 -9 30 -77 28 -98
-2 -28 -42 -25 -13 7 59 17 40 36 73 42 73 6 0 24 -30 40 -67z"/>
<path d="M1573 2056 c-90 -41 -88 -160 4 -248 l29 -28 50 34 c59 40 101 87
110 122 9 37 -7 84 -38 107 -34 25 -113 32 -155 13z"/>
<path d="M1529 1652 c-96 -62 -136 -126 -126 -204 3 -21 12 -50 21 -63 37 -57
156 -87 259 -65 57 11 152 65 152 86 0 12 -243 274 -254 274 -4 0 -27 -13 -52
-28z"/>
<path d="M2330 1820 l0 -222 163 4 c137 3 169 7 207 25 91 41 124 95 124 199
1 95 -30 144 -112 182 -53 25 -68 27 -219 30 l-163 4 0 -222z"/>
<path d="M1576 1013 c-22 -55 19 -74 44 -20 15 32 15 32 -12 33 -15 1 -29 -5
-32 -13z"/>
<path d="M927 514 c-4 -4 -7 -22 -7 -41 0 -30 3 -33 29 -33 28 0 61 22 61 39
0 21 -68 49 -83 35z"/>
<path d="M1097 483 c-2 -10 -8 -26 -12 -35 -6 -15 -2 -18 24 -18 17 0 31 2 31
4 0 1 -5 17 -11 35 -12 35 -24 40 -32 14z"/>
<path d="M1367 470 l-15 -40 34 0 34 0 -15 37 c-9 20 -17 38 -19 40 -1 2 -10
-15 -19 -37z"/>
<path d="M1676 494 c-19 -18 -21 -65 -4 -82 33 -33 108 -1 108 45 0 45 -71 71
-104 37z"/>
<path d="M2107 483 c-2 -10 -8 -26 -12 -35 -6 -15 -2 -18 24 -18 17 0 31 2 31
4 0 1 -5 17 -11 35 -12 35 -24 40 -32 14z"/>
<path d="M922 185 c-18 -39 -15 -45 19 -45 26 0 30 3 24 18 -4 9 -10 25 -12
35 -7 24 -18 21 -31 -8z"/>
<path d="M1060 190 c0 -37 2 -40 29 -40 16 0 34 7 41 15 16 19 4 52 -23 59
-42 11 -47 7 -47 -34z"/>
<path d="M2068 179 l-17 -39 35 0 34 0 -15 37 c-9 20 -17 38 -18 39 -1 1 -10
-15 -19 -37z"/>
</g>
</svg>
