<?xml version="1.0" encoding="utf-8"?>
<!-- Generator: Adobe Illustrator 27.7.0, SVG Export Plug-In . SVG Version: 6.00 Build 0)  -->
<svg version="1.1" id="Capa_2_00000072261634414412390040000017240248811504831402_" xmlns="http://www.w3.org/2000/svg"
	xmlns:xlink="http://www.w3.org/1999/xlink" x="0px" y="0px" viewBox="0 0 272.5 155.5"
	style="enable-background:new 0 0 272.5 155.5;" xml:space="preserve" height="70px" width="90px">
	<style type="text/css">
		.st0 {
			fill: #1D1D1B;
		}

		.st1 {
			font-family: 'SegoeScript';
		}

		.st2 {
			font-size: 40.66px;
		}
	</style>
	<g id="Capa_1-2">
		<g>
			<path class="st0" d="M92,87.5c0.1-24.6,0.1-49.1,0.1-73.7c0-5.9-1.8-7-7.7-5.4c0,0-0.3,0-0.4,0.1c-0.2,0.1-0.5,0.6-0.8,0.8
			c-4.3,6.8-9.1,13.4-13,20.4c-7,12.5-14.9,24.5-22.2,36.8c-1.8,3-2.8,2.6-4.5,0c-3.6-5.8-7.6-11.4-11.2-17.3
			c-7.8-12.6-15.5-25.2-23-38C7.5,8.1,4.6,9,1.9,9.3c-2.5,0.2-1.7,2.6-1.7,3.9c-0.1,25,0,50.1-0.2,75.1c0,4,1.7,4,4.9,4.2
			c3.5,0.1,4.3-0.9,4.3-4.2C9,69.4,9.1,50.5,9.1,31.6c0-1.3,0.1-2.5,0.3-4.7C19.6,43.4,29.2,59,38.8,74.6c1.2,1.9,2.4,3.7,3.9,5.4
			c1.5,1.7,5.2,1.4,6.3-0.3c6.4-10.3,12.8-20.6,19.2-30.9C72.6,41.9,76.8,34.9,81,28c2.9,0.6,1.5,2.8,1.5,4.1
			c0.1,18.3,0.1,36.7,0.1,55c0,1.7-0.6,3.4,0.6,5c2.6,0,5.2,0,7.8,0C93.1,91,92,89.1,92,87.5L92,87.5z" />
			<path class="st0" d="M81,28.2c0.2-1.4,0.9-2.3,1.8-0.6c0.6,1,0.2,2.5,0.2,3.7c0,20.4,0.1,40.8,0.1,61.1c-2.2-1.2-1-3.1-1-4.6
			C82,69.4,82.1,50.9,82,32.4C82,31,82.9,29.3,81,28.2z" />
			<path class="st0" d="M151.2,8.3c-4.1,0-8.2,0-12.2,0C143,7,146.8,7.5,151.2,8.3z" />
			<path class="st0" d="M135,92.7c4.1,0,8.1,0,12.2,0C141.1,93.4,139.2,93.1,135,92.7z" />
			<path class="st0" d="M164.9,29.2c0.1-3.1,0.2-6.3,0.2-9.4C165.5,23.5,166.4,23.6,164.9,29.2z" />
			<path class="st0" d="M185.7,85.4c-2.6-2.2-4.6-5-7.3-7.1c-2.9-2.2-2.2-4.1-0.8-6.8c2.3-4.3,3.4-8.6,5.1-12.8
			c1.6-4-2.4-3.3-4.6-3.8c-1.9-0.4-3-0.3-3.3,2.3c-0.3,3.1-1.9,6.1-3,9.1c-1.2,3.2-2.4,3.4-5,0.8c-6.1-6.1-12.1-12.2-18.3-18.3
			c-1.9-1.8-2.5-2.6,0.6-4.3c6.8-3.7,14.2-7.7,15.8-15.6c0.6-3.2,0.2-5.4,0.2-9.4c-1.4-4.2-4.2-7.1-8.3-9.1
			c-1.9-0.9-3.8-1.5-5.7-2.3c-4.1-0.5-8.1-1.2-12.2-0.6c-6.4,0.4-11.1,4.3-13.9,9.5c-4,7.4-2.8,14.6,2.2,21.3
			c1.8,2.4,5.9,4.6,5.1,6.8c-0.7,2.3-4.9,3.6-7.4,5.5c-6.3,4.7-11.9,9.5-13.1,17.9c-2.2,14.3,11.2,23.2,23,24
			c4.1,0.6,8.1,0.5,12.2,0c8.1-1.3,15.8-3.3,21.4-9.5c1.6-1.7,2.6-0.5,3.6,0.4c2.5,2.3,5.1,4.6,7.3,7.1c2.4,2.8,4.1,1.8,6.4-0.2
			C188.5,88.5,187.8,87.2,185.7,85.4L185.7,85.4z M131.1,26.2c-0.2-5.8,3.2-9.5,9.2-11.3c5-1.5,9.3,0,13.5,1.8
			c3.4,1.5,3.6,4.9,3.3,7.4c0,6.7-8.8,15.9-15.1,16.4c-0.8,0.1-1.8-0.2-2.3-0.7C135.3,36.1,131.3,32.2,131.1,26.2L131.1,26.2z
			 M161.9,79.5c-6.3,4.8-13.3,6.5-22.3,6.5c-3.8,0.3-8-0.9-12.2-3.5c-10.1-6.2-7.8-19.2,0.4-24.9c11.1-7.7,11-7.6,20.2,2.2
			c4.5,4.8,9.6,9.2,14.4,13.7C164.8,75.7,164.9,77.2,161.9,79.5L161.9,79.5z" />
			<path class="st0" d="M264.6,18.1c-7-7.3-16.4-8.1-25.9-9.4c-1.8,0.1-3.7,0-5.6,0c2,0.1-1.8,0,0,0c-11.3,0.1-16.9,0.6-28.2,0.8
			c0,27.5,0,54.9,0,82.4c2.5,0,5,0,7.6,0c0.1-0.5,0.2-0.9,0.3-1.4c0-6.8,0-13.5,0.1-20.3c0-1.2-0.1-2.4-0.1-3.8
			c-0.2-0.4,0.6-0.7,0.9-0.7c9.1-0.1,18.3,0.1,27.4-0.2c11.7-0.5,25.9-5.7,29.9-19C274.2,35.9,272.4,26.3,264.6,18.1L264.6,18.1z
			 M262.5,44c-3.4,8.6-10.3,12.7-19.7,13.6c-9.6,1.6-19.4,0.6-29,0.6c-1.3-0.7-1.1-1.8-1.1-2.9c0-11.9,0-23.8,0-35.7
			c0-1-0.4-2.3,1.2-2.7c10.5-0.5,21.1-0.5,31.5,0.9c6.9,0.9,12.4,4,15.6,10.9c0.6,1.2,1.5,1.9,1.8,3.2C264.4,36,264.5,40,262.5,44
			L262.5,44z" />
			<text transform="matrix(0.91 0 0 1 43.03 147.7678)" class="st1 st2">CONFORT</text>
		</g>
	</g>
</svg>