<?xml version="1.0" encoding="UTF-8"?>
<svg id="Capa_2" data-name="Capa 2" xmlns="http://www.w3.org/2000/svg" viewBox="0 0 225.75 169.75">
  <defs>
    <style>
      .cls-1 {
        fill: #a7a7a7;
      }

      .cls-2 {
        fill: #f0f0f0;
      }

      .cls-3 {
        fill: #1b1a1a;
      }

      .cls-4 {
        fill: #020202;
      }

      .cls-5 {
        fill: #fdfcfd;
      }

      .cls-6 {
        fill: #0a0a0a;
      }

      .cls-7 {
        fill: #030303;
      }

      .cls-8 {
        fill: #010000;
      }

      .cls-9 {
        fill: #fdfdfd;
      }

      .cls-10 {
        fill: #fbfbfb;
      }

      .cls-11 {
        fill: #878787;
      }

      .cls-12 {
        fill: none;
      }

      .cls-13 {
        fill: #fefefe;
      }
    </style>
  </defs>
  <g id="Capa_1-2" data-name="Capa 1">
    <g>
      <path d="m.77.04h224.98v115.46c-74.99,0-149.99,0-224.98,0V.04Zm142.11,90.57c-.39.19-.77.39-1.16.58-1.97.91-3.35,2.4-4.22,4.42-.14-.35-.19-.65-.23-.96-.3-2.27-1.39-3.93-3.52-4.39-2.9-.63-5.76-.27-8.4,1.23-.23.13-.52.18-.99.33.2-.5.25-.83.44-1.04.44-.49.09-.53-.28-.6-.03-.05-.07-.14-.1-.14-3.27.06-6.59-.45-9.78.41-1.36.36-2.78,1.05-3.43,2.57l-.47.2c.22-1.03.44-2.07.65-3.09-.07-.04-.1-.06-.13-.06-2.38-.3-2.4-.29-2.88,2.01-.71,3.41-1.41,6.83-2.11,10.25-.09.01-.19.03-.28.04-.9-4.03-1.8-8.07-2.7-12.08-2.14-.35-4.19-.55-6.09.69-1.78,1.16-3.11,2.65-3.48,5.1-.16-1-.27-1.66-.37-2.32-.17-.45-.35-.9-.52-1.34-.08-.18-.17-.35-.25-.53-.23-.25-.47-.5-.7-.75-.7-.61-1.46-1.04-2.44-.9,1.86.11-.57-.21-.86-.21-.97.03-1.95.12-2.92.17-1.73.1-3.25.75-4.66,1.72-.69.61-1.38,1.23-2.06,1.84-.12,0-.25,0-.37,0,0-.22,0-.44,0-.66,0-1.72-.99-2.78-2.73-2.91-.15-.01-.3-.06-.45-.08-1.62-.27-3.16-.08-4.57.82-2.33,1.49-3.46,3.84-4.23,6.34-.78,2.51-.99,5.1-.61,7.74.24,1.64.7,3.12,2.41,3.68.93.31,1.97.39,2.97.42,2.3.07,4.22-.81,5.71-2.59.37-.51.77-1,1.09-1.55.08-.14-.05-.52-.2-.63-.15-.11-.53-.12-.67,0-.44.36-.81.8-1.21,1.21-.86.33-1.73.63-2.58.99-1.46.62-3.41-.7-3.37-2.53.03-1.23.12-2.47.19-3.7.14-2.44,1-4.68,2.12-6.8.38-.72,1.04-1.39,1.74-1.79.43-.25,1.26-.13,1.76.13.63.32.52,1,.22,1.62-.29.61-.51,1.26-.86,2.13h2.71c0,.62-.06,1.31.02,1.99.09.83.75,1.11,1.47,1.26.45.25.85.39.73-.4.14-1.82.26-3.65,1.74-5.01,1.06-.98,2.01-1.48,3.35-1.89.07.25.13.49.2.74-.31.15-.64.27-.93.45-1.35.79-1.95,2.15-2.65,3.44-1.54,2.82-1.79,5.87-1.68,9,.06,1.67,1.52,3.42,3,3.58,3.46.38,6.16-.79,8.07-3.78,1.53-2.39,2.29-4.98,2.26-7.81.13.24.27.48.4.72.4.88,1.62,1.54,2.56,1.39,0-.4.07-.81-.01-1.2-.45-2.08-.06-3.92,1.56-5.37.31-.28.78-.38,1.17-.56.06.08.13.17.19.25-.65,2.7-1.34,5.4-1.94,8.11-.59,2.71-1.08,5.44-1.62,8.2h2.51c.87-3.77,1.73-7.49,2.59-11.21.05,0,.11,0,.16.01.86,3.73,1.73,7.45,2.6,11.21h3.65c.85-3.99,1.7-7.98,2.57-12.07.3.69.41,1.38.82,1.75.45.4,1.17.49,1.8.73.11-1.79.2-3.39.3-4.99.3-.49.59-.99.92-1.46.37-.53,1.33-.66,1.7-.39-1.16,5.51-2.3,10.96-3.45,16.47.87,0,1.55,0,2.24,0q1.52,0,1.77-1.53c.01-.06.05-.11.06-.17.54-2.46,1.07-4.92,1.62-7.48.49,0,1.08-.05,1.66.01,1.12.12,2.04-.03,2.27-1.36.52.2,1.06.37,1.56.61.67.32.89.07.88-.59,0-.24.02-.49.04-.73.35-.13.7-.25,1.05-.38-.28.82-.63,1.63-.82,2.47-.48,2.16-1.03,4.33-.26,6.56.36,1.02.93,1.93,1.92,2.33,2.47,1.01,6.18-.1,7.94-2.19,2.04-2.41,3.06-5.2,3.28-8.32.01-.16.22-.31.34-.47.09.18.17.36.26.55.48.27.95.54,1.43.81.87.47.95.43.95-.53,0-.28-.02-.55-.03-.83-.14-2.11.63-3.81,2.28-5.11.32-.16.63-.33.95-.49,1.48-.48,2.97-.56,4.49-.24,1.24.79,1.54,1.89,1.11,3.26-.5,1.58-1.54,2.6-3.18,3.21,0-.33-.04-.55,0-.76.21-.98.43-1.95.68-2.92.48-1.84.16-2.32-1.41-2.02-.59.11-1.31.06-1.73.39-.41.33-.6,1.02-.72,1.6-.76,3.46-1.48,6.93-2.19,10.41-.26,1.27-.46,2.55-.7,3.87h3.76c.63-3.07,1.24-6.09,1.86-9.14.45,0,.9-.06,1.32.02.24.04.61.31.61.48.01.86,0,1.73-.15,2.58-.25,1.34-.62,2.65-.93,3.98-.4,1.76.18,2.51,1.95,2.51.37,0,.75.05,1.12,0,.36-.04.71-.18.92-.23-.17-.86-.5-1.59-.41-2.26.18-1.37.62-2.71.89-4.08.31-1.56.64-3.15-.9-4.17.61-.89,1.32-1.66,1.71-2.56,1.09-2.5-.19-5-2.68-5.45-2.03-.64-4.03-.48-6.01.23Zm-93.47-31.73c-.39-.69-.69-1.22-1-1.75-1.33-2.26-2.68-4.5-3.99-6.77-1.36-2.35-2.68-4.72-4.04-7.07-1.6-2.75-3.24-5.48-4.85-8.23-1.92-3.28-3.82-6.58-5.74-9.86-1.56-2.68-3.13-5.36-4.69-8.04-1.31-2.24-2.61-4.48-3.93-6.71-.09-.15-.33-.28-.51-.28-1.86-.02-3.73-.01-5.59-.01v66.31h6.77V24.43c.08-.02.16-.05.24-.07.43.82.83,1.67,1.3,2.47,2.43,4.15,4.89,8.28,7.32,12.43,2.49,4.26,4.95,8.53,7.43,12.79,3.01,5.15,6.03,10.29,9.05,15.43.14.24.41.57.62.57,1.01,0,2.03-.06,3.03-.16.21-.02.47-.25.58-.45,1.96-3.3,3.91-6.61,5.83-9.93,3.07-5.29,6.09-10.61,9.16-15.9,3.39-5.84,6.81-11.65,10.29-17.6v52.51c2.04,0,3.95-.05,5.85.02.91.03,1.21-.1,1.21-1.16-.05-21.18-.04-42.36-.04-63.53,0-.55,0-1.1,0-1.77-1.58,0-3.01.08-4.43-.02-1.2-.08-1.89.14-2.46,1.41-.9,2.01-2.19,3.85-3.31,5.77-1.56,2.68-3.12,5.36-4.67,8.05-1.4,2.42-2.79,4.85-4.18,7.28-1.79,3.12-3.58,6.24-5.37,9.35-2.66,4.6-5.31,9.21-7.98,13.81-.59,1.02-1.21,2.02-1.9,3.17Zm106.85,14.13c-.61-.71-1.11-1.35-1.66-1.93-2.37-2.51-4.74-5.02-7.14-7.5-.5-.51-.54-.89-.07-1.39.16-.17.25-.42.37-.63,1.52-2.79,2.81-5.68,3.61-8.76.38-1.47.74-2.95,1.07-4.43.11-.5-.04-.81-.66-.97-1.34-.33-2.64-.84-3.97-1.21-.51-.14-1-.13-1.18.6-.65,2.52-1.27,5.06-2.06,7.54-.46,1.45-1.2,2.81-1.89,4.38-6.05-6.29-11.93-12.42-17.98-18.71.21-.12.41-.22.59-.34,2.58-1.73,5.26-3.35,7.72-5.23,1.94-1.48,3.63-3.28,4.79-5.49,1.63-3.12,1.84-6.41,1.16-9.82-.84-4.23-3.5-6.93-7.29-8.55-1.52-.65-3.25-.99-4.91-1.11-2.52-.17-5.1-.31-7.58.07-2.64.4-5.14,1.48-7.25,3.31-2.78,2.42-4.65,5.27-4.66,9.08,0,2.06-.25,4.16.43,6.16,1.02,2.98,2.66,5.61,4.74,7.96.9,1.01,1.81,2.01,2.76,3.05-.23.18-.4.36-.61.48-1.03.64-2.13,1.19-3.11,1.91-1.98,1.44-3.93,2.91-5.84,4.45-2.55,2.06-4.51,4.6-5.69,7.67-1.01,2.64-1.27,5.35-.99,8.19.32,3.24,1.57,6,3.72,8.35,2.64,2.88,5.98,4.67,9.67,5.79,3.34,1.01,6.79,1.18,10.24.97,2.54-.16,5.12-.38,7.56-1.05,2.43-.67,4.81-1.75,7-3.01,1.9-1.08,3.58-2.58,5.2-4.08.6-.55.77-.56,1.26-.06,2.61,2.69,5.25,5.35,7.84,8.06.56.59.9.56,1.4-.02,1.1-1.26,2.24-2.47,3.4-3.74Zm19.04-17.49c.26,0,.44,0,.62,0,7.23-.06,14.46-.11,21.69-.19,3.71-.04,7.15-1.22,10.49-2.71,2.61-1.17,4.84-2.88,6.71-5.03.9-1.04,1.77-2.13,2.47-3.31,2.04-3.48,2.6-7.36,2.62-11.3.01-2.01-.15-4.08-.61-6.03-1-4.32-3.21-7.97-6.73-10.76-4.07-3.22-8.78-4.9-13.89-5.44-2.59-.27-5.2-.32-7.8-.34-7.28-.06-14.55-.05-21.83-.06-.33,0-.67,0-.96,0v66.13h7.22v-20.96Zm-15.57,53.21c1.01-4.78,2.07-9.51,2.98-14.26.21-1.08.56-.91,1.34-.75,1.19.25,2.42.35,3.64.4.39.01.9-.28,1.18-.59.78-.87,1.21-1.89.96-3.15-.25.03-.54-.02-.65.1-1.17,1.19-2.57.94-3.96.63-.63-.14-1.19-.56-1.82-.7-1.74-.4-3.49-.47-5.29-.23-4.05.54-6.34,3.84-5.8,7.68.09.62.81,1.28,1.41,1.66.65.42,1.15,0,1.16-.82,0-.69,0-1.37,0-2.06.02-2.42.97-3.64,3.29-4.27.75-.2,1.13-.05,1,.74-.13.84-.37,1.65-.54,2.48-.66,3.2-1.31,6.4-1.97,9.61-.24,1.17-.47,2.34-.72,3.55h3.78Z"/>
      <path class="cls-13" d="m.77.04v115.46H.02C.02,77.26.02,39.03,0,.79,0,.15.13-.1.77.04Z"/>
      <path class="cls-13" d="m49.41,58.88c.69-1.15,1.31-2.15,1.9-3.17,2.66-4.6,5.32-9.2,7.98-13.81,1.8-3.11,3.58-6.23,5.37-9.35,1.39-2.43,2.78-4.86,4.18-7.28,1.55-2.69,3.11-5.37,4.67-8.05,1.12-1.92,2.41-3.76,3.31-5.77.57-1.26,1.26-1.49,2.46-1.41,1.42.1,2.85.02,4.43.02,0,.67,0,1.22,0,1.77,0,21.18,0,42.36.04,63.53,0,1.06-.3,1.19-1.21,1.16-1.9-.07-3.81-.02-5.85-.02V24c-3.48,5.94-6.9,11.76-10.29,17.6-3.07,5.29-6.1,10.61-9.16,15.9-1.92,3.32-3.88,6.62-5.83,9.93-.12.2-.37.43-.58.45-1.01.1-2.02.17-3.03.16-.21,0-.48-.33-.62-.57-3.03-5.14-6.05-10.28-9.05-15.43-2.49-4.26-4.94-8.53-7.43-12.79-2.43-4.15-4.89-8.28-7.32-12.43-.47-.8-.87-1.64-1.3-2.47-.08.02-.16.05-.24.07v52.04h-6.77V10.16c1.87,0,3.73,0,5.59.01.17,0,.42.13.51.28,1.32,2.23,2.62,4.47,3.93,6.71,1.56,2.68,3.13,5.36,4.69,8.04,1.91,3.29,3.82,6.58,5.74,9.86,1.61,2.75,3.25,5.48,4.85,8.23,1.36,2.35,2.68,4.72,4.04,7.07,1.31,2.26,2.66,4.51,3.99,6.77.31.52.6,1.06,1,1.75Z"/>
      <path class="cls-13" d="m156.27,73.01c-1.16,1.27-2.3,2.49-3.4,3.74-.5.58-.84.6-1.4.02-2.59-2.71-5.23-5.37-7.84-8.06-.49-.5-.66-.49-1.26.06-1.62,1.49-3.3,2.99-5.2,4.08-2.2,1.26-4.57,2.33-7,3.01-2.43.67-5.02.89-7.56,1.05-3.45.21-6.9.05-10.24-.97-3.7-1.12-7.04-2.91-9.67-5.79-2.16-2.35-3.4-5.11-3.72-8.35-.28-2.84-.03-5.56.99-8.19,1.18-3.07,3.13-5.62,5.69-7.67,1.9-1.53,3.86-3.01,5.84-4.45.98-.71,2.07-1.27,3.11-1.91.2-.13.38-.3.61-.48-.95-1.05-1.87-2.04-2.76-3.05-2.08-2.35-3.72-4.98-4.74-7.96-.68-2-.44-4.1-.43-6.16.01-3.81,1.88-6.66,4.66-9.08,2.11-1.83,4.61-2.91,7.25-3.31,2.47-.38,5.06-.24,7.58-.07,1.66.11,3.39.46,4.91,1.11,3.79,1.62,6.45,4.32,7.29,8.55.68,3.42.48,6.7-1.16,9.82-1.16,2.21-2.85,4.01-4.79,5.49-2.47,1.88-5.14,3.5-7.72,5.23-.18.12-.38.22-.59.34,6.05,6.3,11.93,12.42,17.98,18.71.69-1.57,1.43-2.93,1.89-4.38.78-2.48,1.41-5.02,2.06-7.54.19-.73.68-.74,1.18-.6,1.33.38,2.63.88,3.97,1.21.62.16.77.47.66.97-.33,1.48-.69,2.96-1.07,4.43-.8,3.09-2.09,5.97-3.61,8.76-.12.21-.2.46-.37.63-.47.5-.43.88.07,1.39,2.41,2.48,4.77,4.99,7.14,7.5.55.58,1.05,1.22,1.66,1.93Zm-34.55-1.73c1.23-.16,2.94-.31,4.63-.6,4.73-.81,8.74-3.04,12.11-6.42.15-.15.18-.64.05-.81-.55-.7-1.17-1.36-1.79-2.01-2.64-2.77-5.27-5.55-7.93-8.3-2.96-3.06-5.96-6.09-8.93-9.15-.45-.47-.82-.66-1.42-.21-.51.38-1.12.61-1.65.96-2.71,1.77-5.48,3.47-7.63,5.96-2.5,2.88-3.92,6.12-3.4,10.06.37,2.78,1.66,5,3.79,6.76,3.39,2.81,7.46,3.53,12.17,3.75Zm1.6-56.9c-.79.09-1.6.12-2.38.28-5.64,1.13-8.71,6.34-6.95,11.73,1.2,3.66,3.88,6.27,6.44,8.95.24.25,1.04.26,1.38.06,1.59-.93,3.17-1.89,4.64-2.99,3.16-2.35,6.32-4.67,6.8-9.12.28-2.55-.69-5.19-2.55-6.73-2.14-1.79-4.72-2.1-7.39-2.17Z"/>
      <path class="cls-13" d="m175.31,55.52v20.96h-7.22V10.34c.29,0,.62,0,.96,0,7.28.02,14.55,0,21.83.06,2.6.02,5.22.07,7.8.34,5.1.54,9.81,2.22,13.89,5.44,3.52,2.78,5.73,6.44,6.73,10.76.45,1.96.62,4.02.61,6.03-.02,3.94-.58,7.82-2.62,11.3-.69,1.18-1.57,2.28-2.47,3.31-1.87,2.15-4.1,3.86-6.71,5.03-3.34,1.49-6.78,2.67-10.49,2.71-7.23.08-14.46.13-21.69.19-.18,0-.36,0-.62,0Zm.01-38.99c0,.42,0,.73,0,1.04.01,10.02.02,20.04.03,30.06,0,1.63-.02,1.64,1.55,1.65,4.87,0,9.74.08,14.61-.04,2.57-.06,5.15-.07,7.73-.61,4.06-.86,7.62-2.42,10.32-5.68,1.6-1.93,2.64-4.13,2.86-6.59.19-2.17.17-4.38,0-6.56-.29-3.9-2.28-6.95-5.33-9.26-2.97-2.24-6.45-3.27-10.12-3.63-2.06-.2-4.12-.35-6.19-.37-5.12-.05-10.23-.02-15.45-.02Z"/>
      <path class="cls-9" d="m93.58,97.16c.03,2.83-.73,5.42-2.26,7.81-1.91,2.99-4.61,4.16-8.07,3.78-1.48-.16-2.94-1.92-3-3.58-.12-3.13.14-6.18,1.68-9,.7-1.29,1.31-2.65,2.65-3.44.3-.17.62-.3.93-.45.18,0,.37,0,.55,0-.07.84.31,1.21,1.15,1.1-.59,1.18-1.26,2.32-1.77,3.54-1.04,2.5-1.7,5.11-1.4,7.85.06.58.29,1.38.71,1.63.65.39,1.46,0,1.99-.54.46-.48.86-1.05,1.18-1.63,1.78-3.21,2.51-6.67,2.26-10.33-.08-1.09-.57-1.98-1.7-2.37l.04-.03-.02-.04c.31-.41.62-.83.93-1.24,1.05.2,1.53.41,2.44.9-.07.53.1.84.7.75.08.18.17.35.25.53-.24.61-.16,1.09.52,1.34.11.66.21,1.32.37,2.32.37-2.45,1.7-3.94,3.48-5.1,1.9-1.24,3.95-1.05,6.09-.69.9,4.01,1.8,8.04,2.7,12.08h.27c.7-3.43,1.4-6.86,2.12-10.29.48-2.3.5-2.31,2.88-2.01.03,0,.06.03.13.06-.22,1.02-.44,2.05-.65,3.09-.26,1.02-.52,2.04-.79,3.06.07.02.15.04.22.06l.87-2.56,1.86.37c-.1,1.6-.19,3.2-.3,4.99-.63-.24-1.35-.33-1.8-.73-.41-.36-.52-1.06-.82-1.75-.87,4.09-1.72,8.08-2.57,12.07h-3.65c-.87-3.76-1.74-7.49-2.6-11.22h-.16c-.86,3.72-1.72,7.44-2.59,11.21h-2.51c.54-2.76,1.03-5.49,1.62-8.2.59-2.71,1.29-5.41,1.94-8.11-.06-.08-.13-.17-.19-.25-.39.18-.86.28-1.17.56-1.63,1.45-2.01,3.29-1.56,5.37.08.38.01.8.01,1.2-.95.15-2.16-.51-2.56-1.39.65-.62-.01-1.1,0-1.65-.11,0-.22,0-.32,0-.03.31-.05.62-.08.93Z"/>
      <path class="cls-5" d="m137.61,97.51c-.12.16-.33.31-.34.47-.22,3.12-1.23,5.91-3.28,8.32-1.77,2.09-5.47,3.19-7.94,2.19-.99-.4-1.57-1.3-1.92-2.33-.77-2.22-.21-4.4.26-6.56.19-.84.54-1.65.82-2.47.33-.69.58-1.43.99-2.07.96-1.51,2-2.97,4.11-2.84.19,0,.38,0,.57,0,.19,0,.37,0,.56,0-.03.26.01.56-.1.77-.63,1.14-1.38,2.22-1.95,3.39-.86,1.76-1.42,3.63-1.5,5.6-.05,1.24-.08,2.5.02,3.73.07.84.83,1.23,1.51.74.82-.59,1.65-1.32,2.16-2.17,1.89-3.14,2.58-6.59,2.3-10.24-.13-1.7-.6-2.22-2.24-2.53-.19-.05-.39-.1-.58-.15-.31,0-.62.01-.93.02-.19.04-.38.09-.58.13-2.94.04-5.64,3.05-5.39,6.01-.01.24-.04.49-.04.73,0,.66-.21.91-.88.59-.5-.24-1.04-.41-1.56-.61,0-.24,0-.49,0-.73-.04-.48-.19-.97-.11-1.43.19-1.11.76-2.03,1.6-2.8.18-.17.27-.44.39-.66.18-.39.63-.94.5-1.13-.48-.72-.14-1.02.44-1.3.37.07.72.12.28.6-.19.21-.23.53-.44,1.04.47-.15.76-.2.99-.33,2.64-1.5,5.5-1.86,8.4-1.23,2.13.46,3.22,2.12,3.52,4.39.04.31.09.61.23.96.87-2.02,2.25-3.51,4.22-4.42l.79,1.2c-1.66,1.3-2.42,3-2.28,5.11-.95.02-.56.94-.92,1.36-.48-.27-.95-.54-1.43-.81-.09-.18-.17-.36-.26-.55Zm.07-.35s.06.05.09.08v-1.31s-.06,0-.09,0v1.24Z"/>
      <path class="cls-9" d="m148.89,90.38c2.48.45,3.76,2.95,2.68,5.45-.39.9-1.1,1.66-1.71,2.56,1.54,1.02,1.21,2.61.9,4.17-.27,1.37-.71,2.7-.89,4.08-.09.67.24,1.4.41,2.26-.21.06-.56.19-.92.23-.37.04-.75,0-1.12,0-1.77,0-2.35-.74-1.95-2.51.3-1.33.68-2.64.93-3.98.15-.84.16-1.72.15-2.58,0-.17-.38-.44-.61-.48-.42-.08-.87-.02-1.32-.02-.62,3.04-1.24,6.07-1.86,9.14h-3.76c.24-1.32.44-2.6.7-3.87.71-3.47,1.43-6.94,2.19-10.41.12-.57.31-1.27.72-1.6.41-.33,1.14-.27,1.73-.39,1.57-.3,1.89.17,1.41,2.02-.25.97-.47,1.94-.68,2.92-.04.21,0,.43,0,.76,1.64-.61,2.68-1.63,3.18-3.21.43-1.37.13-2.47-1.11-3.26l.95-1.29Z"/>
      <path class="cls-9" d="m78.95,93.75c.69-.61,1.38-1.23,2.06-1.84.32.51.64,1.01.96,1.52-1.48,1.36-1.6,3.19-1.74,5.01-.24.13-.48.27-.73.4-.73-.15-1.38-.43-1.47-1.26-.07-.68-.02-1.37-.02-1.99h-2.71c.34-.87.56-1.52.86-2.13.3-.62.4-1.3-.22-1.62-.5-.26-1.33-.38-1.76-.13-.7.41-1.36,1.08-1.74,1.79-1.12,2.12-1.98,4.36-2.12,6.8-.07,1.23-.16,2.47-.19,3.7-.04,1.83,1.91,3.15,3.37,2.53.85-.36,1.72-.66,2.58-.99.33.33.66.65.99.98-1.49,1.77-3.4,2.66-5.71,2.59-1-.03-2.03-.11-2.97-.42-1.71-.57-2.17-2.04-2.41-3.68-.38-2.64-.17-5.23.61-7.74.77-2.5,1.9-4.85,4.23-6.34,1.4-.9,2.95-1.09,4.57-.82.15.03.3.07.45.08,1.74.13,2.73,1.19,2.73,2.91,0,.22,0,.44,0,.66,0,.19,0,.37,0,.56-.54.12-.7.35-.17.85.07-.32.13-.58.18-.83.12-.19.24-.38.37-.58Z"/>
      <path class="cls-9" d="m159.73,108.73h-3.78c.25-1.21.48-2.38.72-3.55.65-3.2,1.31-6.41,1.97-9.61.17-.83.42-1.65.54-2.48.12-.79-.26-.94-1-.74-2.33.64-3.28,1.86-3.29,4.27,0,.69,0,1.37,0,2.06,0,.82-.51,1.25-1.16.82-.59-.39-1.32-1.04-1.41-1.66-.54-3.84,1.74-7.14,5.8-7.68,1.8-.24,3.54-.17,5.29.23.63.14,1.19.56,1.82.7,1.38.31,2.79.56,3.96-.63.12-.12.41-.07.65-.1.26,1.26-.17,2.28-.96,3.15-.28.31-.79.6-1.18.59-1.22-.04-2.45-.15-3.64-.4-.78-.16-1.13-.33-1.34.75-.91,4.75-1.96,9.48-2.98,14.26Z"/>
      <path class="cls-9" d="m121.69,97.49c0,.24,0,.49,0,.73-.23,1.33-1.15,1.48-2.27,1.36-.58-.06-1.17-.01-1.66-.01-.55,2.56-1.09,5.02-1.62,7.48-.01.06-.05.11-.06.17q-.26,1.53-1.77,1.53c-.68,0-1.37,0-2.24,0,1.16-5.51,2.3-10.96,3.45-16.47-.37-.27-1.32-.14-1.7.39-.33.47-.61.97-.92,1.46-.62-.13-1.24-.25-1.85-.38.05-.25.1-.5.15-.75.65-1.51,2.07-2.2,3.43-2.57,3.2-.85,6.52-.34,9.78-.41.03,0,.07.09.1.14-.58.28-.92.58-.44,1.3.12.18-.32.74-.5,1.13h-4.4c-.27,1.21-.57,2.54-.84,3.88-.13.63-.03,1.1.83,1.03.84-.07,1.68-.02,2.53-.03Z"/>
      <path class="cls-6" d="m131.45,92.22c-.19,0-.37,0-.56,0-.08-.11-.16-.21-.24-.32-.11.11-.22.21-.33.32-2.11-.13-3.14,1.33-4.11,2.84-.41.64-.67,1.38-.99,2.07-.35.13-.7.25-1.05.38-.26-2.95,2.44-5.96,5.39-6.01.19-.04.38-.09.58-.13.31,0,.62-.01.93-.02,0,.05,0,.1,0,.16.13.24.25.47.38.71Z"/>
      <path class="cls-2" d="m148.89,90.38l-.95,1.29c-1.52-.32-3.01-.24-4.49.24-.19-.43-.38-.87-.58-1.3,1.98-.72,3.98-.88,6.01-.23Z"/>
      <path class="cls-3" d="m85.32,91.54c.07.25.13.49.2.74.18,0,.37,0,.55,0,.7.05,1.39.11,2.09.16.11-.3.23-.61.34-.91l.04-.03-.02-.04c-1.07.03-2.16.07-3.2.08Z"/>
      <path class="cls-2" d="m77.08,106.52c-.33-.33-.66-.65-.99-.98.4-.41.77-.85,1.21-1.21.14-.11.52-.11.67,0,.15.11.28.5.2.63-.32.54-.72,1.03-1.09,1.55Z"/>
      <path class="cls-10" d="m142.88,90.61c.19.43.38.87.58,1.3-.32.16-.63.33-.95.49l-.79-1.2c.39-.19.77-.39,1.16-.58Z"/>
      <path class="cls-11" d="m111.2,93.01c-.05.25-.1.5-.15.75-.29.86-.58,1.71-.87,2.57-.07-.02-.15-.04-.22-.06.26-1.02.52-2.04.79-3.06l.47-.2Z"/>
      <path class="cls-10" d="m139.3,98.87c.36-.42-.03-1.34.92-1.36.01.28.03.55.03.83,0,.96-.08,1.01-.95.53Z"/>
      <path class="cls-9" d="m93.58,97.16c.03-.31.05-.62.08-.93.11,0,.22,0,.32,0,0,.55.66,1.03,0,1.65-.13-.24-.27-.48-.4-.72Z"/>
      <path class="cls-9" d="m93.36,93.76c-.68-.25-.76-.73-.52-1.34.17.45.35.9.52,1.34Z"/>
      <path class="cls-9" d="m79.5,98.84c.24-.13.48-.27.73-.4.12.79-.28.65-.73.4Z"/>
      <path class="cls-9" d="m92.58,91.88c-.6.08-.77-.22-.7-.75.23.25.47.5.7.75Z"/>
      <path class="cls-9" d="m78.57,94.31c0-.19,0-.37,0-.56.12,0,.25,0,.37,0-.12.19-.24.38-.37.58,0,0-.02-.02-.02-.02Z"/>
      <path class="cls-10" d="m137.61,97.51c.09.18.17.36.26.55-.09-.18-.17-.36-.26-.55Z"/>
      <path d="m121.71,71.29c-4.71-.22-8.78-.94-12.17-3.75-2.12-1.76-3.42-3.98-3.79-6.76-.52-3.94.9-7.18,3.4-10.06,2.15-2.48,4.92-4.19,7.63-5.96.53-.35,1.15-.58,1.65-.96.59-.45.96-.26,1.42.21,2.96,3.06,5.96,6.08,8.93,9.15,2.66,2.75,5.3,5.53,7.93,8.3.62.65,1.24,1.3,1.79,2.01.13.17.1.66-.05.81-3.38,3.38-7.38,5.61-12.11,6.42-1.69.29-3.4.44-4.63.6Z"/>
      <path class="cls-8" d="m123.32,14.39c2.67.07,5.25.38,7.39,2.17,1.86,1.55,2.82,4.18,2.55,6.73-.48,4.45-3.65,6.77-6.8,9.12-1.47,1.1-3.05,2.06-4.64,2.99-.35.2-1.14.19-1.38-.06-2.56-2.67-5.24-5.28-6.44-8.95-1.76-5.39,1.31-10.6,6.95-11.73.78-.16,1.59-.19,2.38-.28Z"/>
      <path d="m175.32,16.53c5.21,0,10.33-.03,15.45.02,2.06.02,4.13.17,6.19.37,3.67.36,7.16,1.39,10.12,3.63,3.05,2.3,5.04,5.36,5.33,9.26.16,2.18.19,4.39,0,6.56-.22,2.46-1.27,4.66-2.86,6.59-2.7,3.26-6.26,4.82-10.32,5.68-2.57.54-5.15.55-7.73.61-4.87.11-9.74.04-14.61.04-1.56,0-1.54-.01-1.55-1.65,0-10.02-.02-20.04-.03-30.06,0-.31,0-.62,0-1.04Z"/>
      <path class="cls-4" d="m88.16,92.45c.11-.3.23-.61.34-.91,1.12.39,1.62,1.28,1.7,2.37.25,3.66-.48,7.11-2.26,10.33-.32.58-.72,1.15-1.18,1.63-.53.55-1.34.94-1.99.54-.42-.25-.65-1.05-.71-1.63-.3-2.74.35-5.34,1.4-7.85.51-1.21,1.17-2.36,1.77-3.54.31-.31.63-.63.94-.94Z"/>
      <path class="cls-9" d="m88.16,92.45c-.31.31-.63.63-.94.94-.84.11-1.22-.27-1.15-1.1l2.09.16Z"/>
      <path class="cls-4" d="m131.45,92.22c-.13-.24-.25-.47-.38-.71.19,0,.38,0,.58,0,1.64.31,2.11.84,2.24,2.53.28,3.65-.41,7.1-2.3,10.24-.51.85-1.34,1.58-2.16,2.17-.68.49-1.44.1-1.51-.74-.11-1.24-.08-2.49-.02-3.73.09-1.97.65-3.84,1.5-5.6.57-1.17,1.32-2.25,1.95-3.39.12-.21.07-.51.1-.77Z"/>
      <path class="cls-7" d="m121.69,97.49c-.84,0-1.69-.04-2.53.03-.86.07-.96-.4-.83-1.03.27-1.34.58-2.67.84-3.88h4.4c-.13.22-.21.49-.39.66-.83.77-1.41,1.69-1.6,2.8-.08.46.07.95.11,1.43Z"/>
      <path class="cls-1" d="m137.68,97.16v-1.24s.06,0,.09,0v1.31s-.06-.05-.09-.08Z"/>
      <path class="cls-3" d="m130.32,92.23c.11-.11.22-.21.33-.32.08.11.16.21.24.32-.19,0-.38,0-.57,0Z"/>
      <path class="cls-3" d="m130.14,91.37c-.19.04-.38.09-.58.13.19-.04.38-.09.58-.13Z"/>
      <path class="cls-3" d="m131.65,91.5c-.19,0-.38,0-.58,0,0-.05,0-.1,0-.16.19.05.39.1.58.15Z"/>
      <path class="cls-9" d="m78.58,94.33c-.06.25-.11.51-.18.83-.54-.49-.38-.72.17-.85,0,0,.02.01.02.01Z"/>
    </g>
    <rect class="cls-12" x=".5" y=".25" width="225" height="169.5"/>
  </g>
</svg>